<svg width="436" height="934" viewBox="0 0 436 934" fill="none" xmlns="http://www.w3.org/2000/svg">
<g filter="url(#filter0_d_7_672)">
<g clip-path="url(#clip0_7_672)">
<rect x="4" width="428" height="926" rx="74" fill="#182724"/>
<path d="M4 334C4 306.386 26.3858 284 54 284H382C409.614 284 432 306.386 432 334V852C432 892.869 398.869 926 358 926H78C37.1309 926 4 892.869 4 852V334Z" fill="#05CAAD"/>
<rect x="42" y="344" width="344" height="50" rx="5" fill="white"/>
<rect width="50" height="50" transform="translate(336 344)" fill="#1B9583"/>
<path d="M377.667 352.333H344.333C342.042 352.333 340.187 354.208 340.187 356.5L340.167 381.5C340.167 383.792 342.042 385.667 344.333 385.667H377.667C379.958 385.667 381.833 383.792 381.833 381.5V356.5C381.833 354.208 379.958 352.333 377.667 352.333ZM377.667 360.667L361 371.083L344.333 360.667V356.5L361 366.917L377.667 356.5V360.667Z" fill="black"/>
<path d="M71.8965 373.4V376H61.0565V362H71.6365V364.6H64.2765V367.64H70.7765V370.16H64.2765V373.4H71.8965ZM88.0345 365.08C89.3811 365.08 90.4478 365.48 91.2345 366.28C92.0345 367.067 92.4345 368.253 92.4345 369.84V376H89.3145V370.32C89.3145 369.467 89.1345 368.833 88.7745 368.42C88.4278 367.993 87.9278 367.78 87.2745 367.78C86.5411 367.78 85.9611 368.02 85.5345 368.5C85.1078 368.967 84.8945 369.667 84.8945 370.6V376H81.7745V370.32C81.7745 368.627 81.0945 367.78 79.7345 367.78C79.0145 367.78 78.4411 368.02 78.0145 368.5C77.5878 368.967 77.3745 369.667 77.3745 370.6V376H74.2545V365.24H77.2345V366.48C77.6345 366.027 78.1211 365.68 78.6945 365.44C79.2811 365.2 79.9211 365.08 80.6145 365.08C81.3745 365.08 82.0611 365.233 82.6745 365.54C83.2878 365.833 83.7811 366.267 84.1545 366.84C84.5945 366.28 85.1478 365.847 85.8145 365.54C86.4945 365.233 87.2345 365.08 88.0345 365.08ZM99.571 365.08C101.238 365.08 102.518 365.48 103.411 366.28C104.304 367.067 104.751 368.26 104.751 369.86V376H101.831V374.66C101.244 375.66 100.151 376.16 98.551 376.16C97.7243 376.16 97.0043 376.02 96.391 375.74C95.791 375.46 95.331 375.073 95.011 374.58C94.691 374.087 94.531 373.527 94.531 372.9C94.531 371.9 94.9043 371.113 95.651 370.54C96.411 369.967 97.5777 369.68 99.151 369.68H101.631C101.631 369 101.424 368.48 101.011 368.12C100.598 367.747 99.9777 367.56 99.151 367.56C98.5777 367.56 98.011 367.653 97.451 367.84C96.9043 368.013 96.4377 368.253 96.051 368.56L94.931 366.38C95.5177 365.967 96.2177 365.647 97.031 365.42C97.8577 365.193 98.7043 365.08 99.571 365.08ZM99.331 374.06C99.8643 374.06 100.338 373.94 100.751 373.7C101.164 373.447 101.458 373.08 101.631 372.6V371.5H99.491C98.211 371.5 97.571 371.92 97.571 372.76C97.571 373.16 97.7243 373.48 98.031 373.72C98.351 373.947 98.7843 374.06 99.331 374.06ZM107.575 365.24H110.695V376H107.575V365.24ZM109.135 363.74C108.561 363.74 108.095 363.573 107.735 363.24C107.375 362.907 107.195 362.493 107.195 362C107.195 361.507 107.375 361.093 107.735 360.76C108.095 360.427 108.561 360.26 109.135 360.26C109.708 360.26 110.175 360.42 110.535 360.74C110.895 361.06 111.075 361.46 111.075 361.94C111.075 362.46 110.895 362.893 110.535 363.24C110.175 363.573 109.708 363.74 109.135 363.74ZM113.59 361.16H116.71V376H113.59V361.16ZM130.39 376.16C129.257 376.16 128.237 375.927 127.33 375.46C126.437 374.98 125.737 374.32 125.23 373.48C124.723 372.64 124.47 371.687 124.47 370.62C124.47 369.553 124.723 368.6 125.23 367.76C125.737 366.92 126.437 366.267 127.33 365.8C128.237 365.32 129.257 365.08 130.39 365.08C131.523 365.08 132.537 365.32 133.43 365.8C134.323 366.267 135.023 366.92 135.53 367.76C136.037 368.6 136.29 369.553 136.29 370.62C136.29 371.687 136.037 372.64 135.53 373.48C135.023 374.32 134.323 374.98 133.43 375.46C132.537 375.927 131.523 376.16 130.39 376.16ZM130.39 373.6C131.19 373.6 131.843 373.333 132.35 372.8C132.87 372.253 133.13 371.527 133.13 370.62C133.13 369.713 132.87 368.993 132.35 368.46C131.843 367.913 131.19 367.64 130.39 367.64C129.59 367.64 128.93 367.913 128.41 368.46C127.89 368.993 127.63 369.713 127.63 370.62C127.63 371.527 127.89 372.253 128.41 372.8C128.93 373.333 129.59 373.6 130.39 373.6ZM141.356 366.66C141.729 366.14 142.229 365.747 142.856 365.48C143.496 365.213 144.229 365.08 145.056 365.08V367.96C144.709 367.933 144.476 367.92 144.356 367.92C143.462 367.92 142.762 368.173 142.256 368.68C141.749 369.173 141.496 369.92 141.496 370.92V376H138.376V365.24H141.356V366.66ZM163.493 365.24V376H160.533V374.72C160.12 375.187 159.626 375.547 159.053 375.8C158.48 376.04 157.86 376.16 157.193 376.16C155.78 376.16 154.66 375.753 153.833 374.94C153.006 374.127 152.593 372.92 152.593 371.32V365.24H155.713V370.86C155.713 372.593 156.44 373.46 157.893 373.46C158.64 373.46 159.24 373.22 159.693 372.74C160.146 372.247 160.373 371.52 160.373 370.56V365.24H163.493ZM170.003 376.16C169.11 376.16 168.237 376.053 167.383 375.84C166.53 375.613 165.85 375.333 165.343 375L166.383 372.76C166.863 373.067 167.443 373.32 168.123 373.52C168.803 373.707 169.47 373.8 170.123 373.8C171.443 373.8 172.103 373.473 172.103 372.82C172.103 372.513 171.923 372.293 171.563 372.16C171.203 372.027 170.65 371.913 169.903 371.82C169.023 371.687 168.297 371.533 167.723 371.36C167.15 371.187 166.65 370.88 166.223 370.44C165.81 370 165.603 369.373 165.603 368.56C165.603 367.88 165.797 367.28 166.183 366.76C166.583 366.227 167.157 365.813 167.903 365.52C168.663 365.227 169.557 365.08 170.583 365.08C171.343 365.08 172.097 365.167 172.843 365.34C173.603 365.5 174.23 365.727 174.723 366.02L173.683 368.24C172.737 367.707 171.703 367.44 170.583 367.44C169.917 367.44 169.417 367.533 169.083 367.72C168.75 367.907 168.583 368.147 168.583 368.44C168.583 368.773 168.763 369.007 169.123 369.14C169.483 369.273 170.057 369.4 170.843 369.52C171.723 369.667 172.443 369.827 173.003 370C173.563 370.16 174.05 370.46 174.463 370.9C174.877 371.34 175.083 371.953 175.083 372.74C175.083 373.407 174.883 374 174.483 374.52C174.083 375.04 173.497 375.447 172.723 375.74C171.963 376.02 171.057 376.16 170.003 376.16ZM187.548 370.66C187.548 370.7 187.528 370.98 187.488 371.5H179.348C179.495 372.167 179.842 372.693 180.388 373.08C180.935 373.467 181.615 373.66 182.428 373.66C182.988 373.66 183.482 373.58 183.908 373.42C184.348 373.247 184.755 372.98 185.128 372.62L186.788 374.42C185.775 375.58 184.295 376.16 182.348 376.16C181.135 376.16 180.062 375.927 179.128 375.46C178.195 374.98 177.475 374.32 176.968 373.48C176.462 372.64 176.208 371.687 176.208 370.62C176.208 369.567 176.455 368.62 176.948 367.78C177.455 366.927 178.142 366.267 179.008 365.8C179.888 365.32 180.868 365.08 181.948 365.08C183.002 365.08 183.955 365.307 184.808 365.76C185.662 366.213 186.328 366.867 186.808 367.72C187.302 368.56 187.548 369.54 187.548 370.66ZM181.968 367.44C181.262 367.44 180.668 367.64 180.188 368.04C179.708 368.44 179.415 368.987 179.308 369.68H184.608C184.502 369 184.208 368.46 183.728 368.06C183.248 367.647 182.662 367.44 181.968 367.44ZM192.606 366.66C192.979 366.14 193.479 365.747 194.106 365.48C194.746 365.213 195.479 365.08 196.306 365.08V367.96C195.959 367.933 195.726 367.92 195.606 367.92C194.712 367.92 194.012 368.173 193.506 368.68C192.999 369.173 192.746 369.92 192.746 370.92V376H189.626V365.24H192.606V366.66ZM204.701 365.08C206.034 365.08 207.107 365.48 207.921 366.28C208.747 367.08 209.161 368.267 209.161 369.84V376H206.041V370.32C206.041 369.467 205.854 368.833 205.481 368.42C205.107 367.993 204.567 367.78 203.861 367.78C203.074 367.78 202.447 368.027 201.981 368.52C201.514 369 201.281 369.72 201.281 370.68V376H198.161V365.24H201.141V366.5C201.554 366.047 202.067 365.7 202.681 365.46C203.294 365.207 203.967 365.08 204.701 365.08ZM216.329 365.08C217.995 365.08 219.275 365.48 220.169 366.28C221.062 367.067 221.509 368.26 221.509 369.86V376H218.589V374.66C218.002 375.66 216.909 376.16 215.309 376.16C214.482 376.16 213.762 376.02 213.149 375.74C212.549 375.46 212.089 375.073 211.769 374.58C211.449 374.087 211.289 373.527 211.289 372.9C211.289 371.9 211.662 371.113 212.409 370.54C213.169 369.967 214.335 369.68 215.909 369.68H218.389C218.389 369 218.182 368.48 217.769 368.12C217.355 367.747 216.735 367.56 215.909 367.56C215.335 367.56 214.769 367.653 214.209 367.84C213.662 368.013 213.195 368.253 212.809 368.56L211.689 366.38C212.275 365.967 212.975 365.647 213.789 365.42C214.615 365.193 215.462 365.08 216.329 365.08ZM216.089 374.06C216.622 374.06 217.095 373.94 217.509 373.7C217.922 373.447 218.215 373.08 218.389 372.6V371.5H216.249C214.969 371.5 214.329 371.92 214.329 372.76C214.329 373.16 214.482 373.48 214.789 373.72C215.109 373.947 215.542 374.06 216.089 374.06ZM238.113 365.08C239.459 365.08 240.526 365.48 241.313 366.28C242.113 367.067 242.513 368.253 242.513 369.84V376H239.393V370.32C239.393 369.467 239.213 368.833 238.853 368.42C238.506 367.993 238.006 367.78 237.353 367.78C236.619 367.78 236.039 368.02 235.613 368.5C235.186 368.967 234.973 369.667 234.973 370.6V376H231.853V370.32C231.853 368.627 231.173 367.78 229.813 367.78C229.093 367.78 228.519 368.02 228.093 368.5C227.666 368.967 227.453 369.667 227.453 370.6V376H224.333V365.24H227.313V366.48C227.713 366.027 228.199 365.68 228.773 365.44C229.359 365.2 229.999 365.08 230.693 365.08C231.453 365.08 232.139 365.233 232.753 365.54C233.366 365.833 233.859 366.267 234.233 366.84C234.673 366.28 235.226 365.847 235.893 365.54C236.573 365.233 237.313 365.08 238.113 365.08ZM255.966 370.66C255.966 370.7 255.946 370.98 255.906 371.5H247.766C247.913 372.167 248.26 372.693 248.806 373.08C249.353 373.467 250.033 373.66 250.846 373.66C251.406 373.66 251.9 373.58 252.326 373.42C252.766 373.247 253.173 372.98 253.546 372.62L255.206 374.42C254.193 375.58 252.713 376.16 250.766 376.16C249.553 376.16 248.48 375.927 247.546 375.46C246.613 374.98 245.893 374.32 245.386 373.48C244.88 372.64 244.626 371.687 244.626 370.62C244.626 369.567 244.873 368.62 245.366 367.78C245.873 366.927 246.56 366.267 247.426 365.8C248.306 365.32 249.286 365.08 250.366 365.08C251.42 365.08 252.373 365.307 253.226 365.76C254.08 366.213 254.746 366.867 255.226 367.72C255.72 368.56 255.966 369.54 255.966 370.66ZM250.386 367.44C249.68 367.44 249.086 367.64 248.606 368.04C248.126 368.44 247.833 368.987 247.726 369.68H253.026C252.92 369 252.626 368.46 252.146 368.06C251.666 367.647 251.08 367.44 250.386 367.44Z" fill="#C4C4C4"/>
<rect x="42" y="422" width="344" height="50" rx="5" fill="white"/>
<path d="M66.929 440C68.169 440 69.2423 440.207 70.149 440.62C71.069 441.033 71.7757 441.62 72.269 442.38C72.7623 443.14 73.009 444.04 73.009 445.08C73.009 446.107 72.7623 447.007 72.269 447.78C71.7757 448.54 71.069 449.127 70.149 449.54C69.2423 449.94 68.169 450.14 66.929 450.14H64.109V454H60.869V440H66.929ZM66.749 447.5C67.7223 447.5 68.4623 447.293 68.969 446.88C69.4757 446.453 69.729 445.853 69.729 445.08C69.729 444.293 69.4757 443.693 68.969 443.28C68.4623 442.853 67.7223 442.64 66.749 442.64H64.109V447.5H66.749ZM79.3445 443.08C81.0111 443.08 82.2911 443.48 83.1845 444.28C84.0778 445.067 84.5245 446.26 84.5245 447.86V454H81.6045V452.66C81.0178 453.66 79.9245 454.16 78.3245 454.16C77.4978 454.16 76.7778 454.02 76.1645 453.74C75.5645 453.46 75.1045 453.073 74.7845 452.58C74.4645 452.087 74.3045 451.527 74.3045 450.9C74.3045 449.9 74.6778 449.113 75.4245 448.54C76.1845 447.967 77.3511 447.68 78.9245 447.68H81.4045C81.4045 447 81.1978 446.48 80.7845 446.12C80.3711 445.747 79.7511 445.56 78.9245 445.56C78.3511 445.56 77.7845 445.653 77.2245 445.84C76.6778 446.013 76.2111 446.253 75.8245 446.56L74.7045 444.38C75.2911 443.967 75.9911 443.647 76.8045 443.42C77.6311 443.193 78.4778 443.08 79.3445 443.08ZM79.1045 452.06C79.6378 452.06 80.1111 451.94 80.5245 451.7C80.9378 451.447 81.2311 451.08 81.4045 450.6V449.5H79.2645C77.9845 449.5 77.3445 449.92 77.3445 450.76C77.3445 451.16 77.4978 451.48 77.8045 451.72C78.1245 451.947 78.5578 452.06 79.1045 452.06ZM90.9682 454.16C90.0749 454.16 89.2015 454.053 88.3482 453.84C87.4949 453.613 86.8149 453.333 86.3082 453L87.3482 450.76C87.8282 451.067 88.4082 451.32 89.0882 451.52C89.7682 451.707 90.4349 451.8 91.0882 451.8C92.4082 451.8 93.0682 451.473 93.0682 450.82C93.0682 450.513 92.8882 450.293 92.5282 450.16C92.1682 450.027 91.6149 449.913 90.8682 449.82C89.9882 449.687 89.2615 449.533 88.6882 449.36C88.1149 449.187 87.6149 448.88 87.1882 448.44C86.7749 448 86.5682 447.373 86.5682 446.56C86.5682 445.88 86.7615 445.28 87.1482 444.76C87.5482 444.227 88.1215 443.813 88.8682 443.52C89.6282 443.227 90.5215 443.08 91.5482 443.08C92.3082 443.08 93.0615 443.167 93.8082 443.34C94.5682 443.5 95.1949 443.727 95.6882 444.02L94.6482 446.24C93.7015 445.707 92.6682 445.44 91.5482 445.44C90.8815 445.44 90.3815 445.533 90.0482 445.72C89.7149 445.907 89.5482 446.147 89.5482 446.44C89.5482 446.773 89.7282 447.007 90.0882 447.14C90.4482 447.273 91.0215 447.4 91.8082 447.52C92.6882 447.667 93.4082 447.827 93.9682 448C94.5282 448.16 95.0149 448.46 95.4282 448.9C95.8415 449.34 96.0482 449.953 96.0482 450.74C96.0482 451.407 95.8482 452 95.4482 452.52C95.0482 453.04 94.4615 453.447 93.6882 453.74C92.9282 454.02 92.0215 454.16 90.9682 454.16ZM101.593 454.16C100.7 454.16 99.8265 454.053 98.9732 453.84C98.1199 453.613 97.4399 453.333 96.9332 453L97.9732 450.76C98.4532 451.067 99.0332 451.32 99.7132 451.52C100.393 451.707 101.06 451.8 101.713 451.8C103.033 451.8 103.693 451.473 103.693 450.82C103.693 450.513 103.513 450.293 103.153 450.16C102.793 450.027 102.24 449.913 101.493 449.82C100.613 449.687 99.8865 449.533 99.3132 449.36C98.7399 449.187 98.2399 448.88 97.8132 448.44C97.3999 448 97.1932 447.373 97.1932 446.56C97.1932 445.88 97.3865 445.28 97.7732 444.76C98.1732 444.227 98.7465 443.813 99.4932 443.52C100.253 443.227 101.147 443.08 102.173 443.08C102.933 443.08 103.687 443.167 104.433 443.34C105.193 443.5 105.82 443.727 106.313 444.02L105.273 446.24C104.327 445.707 103.293 445.44 102.173 445.44C101.507 445.44 101.007 445.533 100.673 445.72C100.34 445.907 100.173 446.147 100.173 446.44C100.173 446.773 100.353 447.007 100.713 447.14C101.073 447.273 101.647 447.4 102.433 447.52C103.313 447.667 104.033 447.827 104.593 448C105.153 448.16 105.64 448.46 106.053 448.9C106.467 449.34 106.673 449.953 106.673 450.74C106.673 451.407 106.473 452 106.073 452.52C105.673 453.04 105.087 453.447 104.313 453.74C103.553 454.02 102.647 454.16 101.593 454.16ZM125.683 443.24L121.783 454H118.783L116.363 447.32L113.863 454H110.863L106.983 443.24H109.923L112.463 450.52L115.103 443.24H117.743L120.303 450.52L122.923 443.24H125.683ZM131.96 454.16C130.827 454.16 129.807 453.927 128.9 453.46C128.007 452.98 127.307 452.32 126.8 451.48C126.294 450.64 126.04 449.687 126.04 448.62C126.04 447.553 126.294 446.6 126.8 445.76C127.307 444.92 128.007 444.267 128.9 443.8C129.807 443.32 130.827 443.08 131.96 443.08C133.094 443.08 134.107 443.32 135 443.8C135.894 444.267 136.594 444.92 137.1 445.76C137.607 446.6 137.86 447.553 137.86 448.62C137.86 449.687 137.607 450.64 137.1 451.48C136.594 452.32 135.894 452.98 135 453.46C134.107 453.927 133.094 454.16 131.96 454.16ZM131.96 451.6C132.76 451.6 133.414 451.333 133.92 450.8C134.44 450.253 134.7 449.527 134.7 448.62C134.7 447.713 134.44 446.993 133.92 446.46C133.414 445.913 132.76 445.64 131.96 445.64C131.16 445.64 130.5 445.913 129.98 446.46C129.46 446.993 129.2 447.713 129.2 448.62C129.2 449.527 129.46 450.253 129.98 450.8C130.5 451.333 131.16 451.6 131.96 451.6ZM142.926 444.66C143.299 444.14 143.799 443.747 144.426 443.48C145.066 443.213 145.799 443.08 146.626 443.08V445.96C146.279 445.933 146.046 445.92 145.926 445.92C145.033 445.92 144.333 446.173 143.826 446.68C143.319 447.173 143.066 447.92 143.066 448.92V454H139.946V443.24H142.926V444.66ZM159.343 439.16V454H156.363V452.76C155.59 453.693 154.47 454.16 153.003 454.16C151.99 454.16 151.07 453.933 150.243 453.48C149.43 453.027 148.79 452.38 148.323 451.54C147.857 450.7 147.623 449.727 147.623 448.62C147.623 447.513 147.857 446.54 148.323 445.7C148.79 444.86 149.43 444.213 150.243 443.76C151.07 443.307 151.99 443.08 153.003 443.08C154.377 443.08 155.45 443.513 156.223 444.38V439.16H159.343ZM153.543 451.6C154.33 451.6 154.983 451.333 155.503 450.8C156.023 450.253 156.283 449.527 156.283 448.62C156.283 447.713 156.023 446.993 155.503 446.46C154.983 445.913 154.33 445.64 153.543 445.64C152.743 445.64 152.083 445.913 151.563 446.46C151.043 446.993 150.783 447.713 150.783 448.62C150.783 449.527 151.043 450.253 151.563 450.8C152.083 451.333 152.743 451.6 153.543 451.6Z" fill="#C4C4C4"/>
<rect width="50" height="50" transform="translate(336 422)" fill="#1B9583"/>
<path d="M368.812 425.125C366.617 425.124 364.451 425.638 362.489 426.625C360.528 427.613 358.825 429.045 357.517 430.809C356.209 432.573 355.332 434.619 354.957 436.782C354.581 438.946 354.718 441.168 355.356 443.269L339.125 459.5V468.875H348.5L364.731 452.644C366.665 453.231 368.704 453.394 370.707 453.122C372.71 452.851 374.63 452.15 376.338 451.069C378.046 449.988 379.501 448.551 380.603 446.856C381.705 445.162 382.43 443.25 382.726 441.251C383.023 439.251 382.885 437.211 382.322 435.27C381.758 433.328 380.783 431.531 379.463 430.001C378.142 428.47 376.507 427.243 374.669 426.401C372.832 425.56 370.834 425.125 368.812 425.125V425.125ZM368.812 450.125C367.737 450.124 366.667 449.965 365.637 449.653L363.845 449.109L362.522 450.433L357.552 455.403L355.397 453.25L353.187 455.459L355.342 457.614L352.864 460.092L350.709 457.938L348.5 460.147L350.655 462.302L347.206 465.75H342.25V460.794L357.566 445.478L358.891 444.155L358.347 442.362C357.679 440.161 357.722 437.805 358.471 435.629C359.219 433.454 360.635 431.57 362.516 430.245C364.397 428.92 366.647 428.223 368.948 428.251C371.248 428.279 373.481 429.032 375.329 430.403C377.177 431.773 378.546 433.692 379.24 435.885C379.935 438.078 379.92 440.435 379.199 442.619C378.477 444.804 377.085 446.705 375.22 448.052C373.355 449.4 371.113 450.125 368.812 450.125V450.125Z" fill="black"/>
<path d="M370.375 440.75C372.101 440.75 373.5 439.351 373.5 437.625C373.5 435.899 372.101 434.5 370.375 434.5C368.649 434.5 367.25 435.899 367.25 437.625C367.25 439.351 368.649 440.75 370.375 440.75Z" fill="black"/>
<rect x="124" y="505" width="172" height="50" rx="5" fill="#1B9583"/>
<path d="M168.787 540.336C167.238 540.336 165.735 540.131 164.279 539.72C162.842 539.291 161.685 538.74 160.807 538.068L162.347 534.652C163.187 535.268 164.186 535.763 165.343 536.136C166.501 536.509 167.658 536.696 168.815 536.696C170.103 536.696 171.055 536.509 171.671 536.136C172.287 535.744 172.595 535.231 172.595 534.596C172.595 534.129 172.409 533.747 172.035 533.448C171.681 533.131 171.214 532.879 170.635 532.692C170.075 532.505 169.31 532.3 168.339 532.076C166.846 531.721 165.623 531.367 164.671 531.012C163.719 530.657 162.898 530.088 162.207 529.304C161.535 528.52 161.199 527.475 161.199 526.168C161.199 525.029 161.507 524.003 162.123 523.088C162.739 522.155 163.663 521.417 164.895 520.876C166.146 520.335 167.667 520.064 169.459 520.064C170.71 520.064 171.933 520.213 173.127 520.512C174.322 520.811 175.367 521.24 176.263 521.8L174.863 525.244C173.053 524.217 171.242 523.704 169.431 523.704C168.162 523.704 167.219 523.909 166.603 524.32C166.006 524.731 165.707 525.272 165.707 525.944C165.707 526.616 166.053 527.12 166.743 527.456C167.453 527.773 168.526 528.091 169.963 528.408C171.457 528.763 172.679 529.117 173.631 529.472C174.583 529.827 175.395 530.387 176.067 531.152C176.758 531.917 177.103 532.953 177.103 534.26C177.103 535.38 176.786 536.407 176.151 537.34C175.535 538.255 174.602 538.983 173.351 539.524C172.101 540.065 170.579 540.336 168.787 540.336ZM179.895 524.936H184.263V540H179.895V524.936ZM182.079 522.836C181.276 522.836 180.623 522.603 180.119 522.136C179.615 521.669 179.363 521.091 179.363 520.4C179.363 519.709 179.615 519.131 180.119 518.664C180.623 518.197 181.276 517.964 182.079 517.964C182.882 517.964 183.535 518.188 184.039 518.636C184.543 519.084 184.795 519.644 184.795 520.316C184.795 521.044 184.543 521.651 184.039 522.136C183.535 522.603 182.882 522.836 182.079 522.836ZM203.857 524.936V537.48C203.857 540.243 203.138 542.296 201.701 543.64C200.263 544.984 198.163 545.656 195.401 545.656C193.945 545.656 192.563 545.479 191.257 545.124C189.95 544.769 188.867 544.256 188.009 543.584L189.745 540.448C190.379 540.971 191.182 541.381 192.153 541.68C193.123 541.997 194.094 542.156 195.065 542.156C196.577 542.156 197.687 541.811 198.397 541.12C199.125 540.448 199.489 539.421 199.489 538.04V537.396C198.35 538.647 196.763 539.272 194.729 539.272C193.347 539.272 192.078 538.973 190.921 538.376C189.782 537.76 188.877 536.901 188.205 535.8C187.533 534.699 187.197 533.429 187.197 531.992C187.197 530.555 187.533 529.285 188.205 528.184C188.877 527.083 189.782 526.233 190.921 525.636C192.078 525.02 193.347 524.712 194.729 524.712C196.913 524.712 198.574 525.431 199.713 526.868V524.936H203.857ZM195.597 535.688C196.754 535.688 197.697 535.352 198.425 534.68C199.171 533.989 199.545 533.093 199.545 531.992C199.545 530.891 199.171 530.004 198.425 529.332C197.697 528.641 196.754 528.296 195.597 528.296C194.439 528.296 193.487 528.641 192.741 529.332C191.994 530.004 191.621 530.891 191.621 531.992C191.621 533.093 191.994 533.989 192.741 534.68C193.487 535.352 194.439 535.688 195.597 535.688ZM217.078 524.712C218.945 524.712 220.448 525.272 221.586 526.392C222.744 527.512 223.322 529.173 223.322 531.376V540H218.954V532.048C218.954 530.853 218.693 529.967 218.17 529.388C217.648 528.791 216.892 528.492 215.902 528.492C214.801 528.492 213.924 528.837 213.27 529.528C212.617 530.2 212.29 531.208 212.29 532.552V540H207.922V524.936H212.094V526.7C212.673 526.065 213.392 525.58 214.25 525.244C215.109 524.889 216.052 524.712 217.078 524.712ZM235.211 524.936H239.579V540H235.211V524.936ZM237.395 522.836C236.593 522.836 235.939 522.603 235.435 522.136C234.931 521.669 234.679 521.091 234.679 520.4C234.679 519.709 234.931 519.131 235.435 518.664C235.939 518.197 236.593 517.964 237.395 517.964C238.198 517.964 238.851 518.188 239.355 518.636C239.859 519.084 240.111 519.644 240.111 520.316C240.111 521.044 239.859 521.651 239.355 522.136C238.851 522.603 238.198 522.836 237.395 522.836ZM252.789 524.712C254.656 524.712 256.159 525.272 257.297 526.392C258.455 527.512 259.033 529.173 259.033 531.376V540H254.665V532.048C254.665 530.853 254.404 529.967 253.881 529.388C253.359 528.791 252.603 528.492 251.613 528.492C250.512 528.492 249.635 528.837 248.981 529.528C248.328 530.2 248.001 531.208 248.001 532.552V540H243.633V524.936H247.805V526.7C248.384 526.065 249.103 525.58 249.961 525.244C250.82 524.889 251.763 524.712 252.789 524.712Z" fill="white"/>
<path d="M82.6327 591.8H87.7207C88.9367 591.8 90.0087 592.035 90.9367 592.504C91.8754 592.963 92.6007 593.613 93.1127 594.456C93.6354 595.299 93.8967 596.28 93.8967 597.4C93.8967 598.52 93.6354 599.501 93.1127 600.344C92.6007 601.187 91.8754 601.843 90.9367 602.312C90.0087 602.771 88.9367 603 87.7207 603H82.6327V591.8ZM87.5927 600.872C88.7127 600.872 89.6034 600.563 90.2647 599.944C90.9367 599.315 91.2727 598.467 91.2727 597.4C91.2727 596.333 90.9367 595.491 90.2647 594.872C89.6034 594.243 88.7127 593.928 87.5927 593.928H85.2247V600.872H87.5927ZM95.6754 594.392H98.1714V603H95.6754V594.392ZM96.9234 593.192C96.4648 593.192 96.0914 593.059 95.8034 592.792C95.5154 592.525 95.3714 592.195 95.3714 591.8C95.3714 591.405 95.5154 591.075 95.8034 590.808C96.0914 590.541 96.4648 590.408 96.9234 590.408C97.3821 590.408 97.7554 590.536 98.0434 590.792C98.3314 591.048 98.4754 591.368 98.4754 591.752C98.4754 592.168 98.3314 592.515 98.0434 592.792C97.7554 593.059 97.3821 593.192 96.9234 593.192ZM109.256 591.128V603H106.872V602.008C106.253 602.755 105.357 603.128 104.184 603.128C103.373 603.128 102.637 602.947 101.976 602.584C101.325 602.221 100.813 601.704 100.44 601.032C100.067 600.36 99.8799 599.581 99.8799 598.696C99.8799 597.811 100.067 597.032 100.44 596.36C100.813 595.688 101.325 595.171 101.976 594.808C102.637 594.445 103.373 594.264 104.184 594.264C105.283 594.264 106.141 594.611 106.76 595.304V591.128H109.256ZM104.616 601.08C105.245 601.08 105.768 600.867 106.184 600.44C106.6 600.003 106.808 599.421 106.808 598.696C106.808 597.971 106.6 597.395 106.184 596.968C105.768 596.531 105.245 596.312 104.616 596.312C103.976 596.312 103.448 596.531 103.032 596.968C102.616 597.395 102.408 597.971 102.408 598.696C102.408 599.421 102.616 600.003 103.032 600.44C103.448 600.867 103.976 601.08 104.616 601.08ZM124.641 594.392L120.753 603.528C120.359 604.52 119.868 605.219 119.281 605.624C118.705 606.029 118.007 606.232 117.185 606.232C116.737 606.232 116.295 606.163 115.857 606.024C115.42 605.885 115.063 605.693 114.785 605.448L115.697 603.672C115.889 603.843 116.108 603.976 116.353 604.072C116.609 604.168 116.86 604.216 117.105 604.216C117.447 604.216 117.724 604.131 117.937 603.96C118.151 603.8 118.343 603.528 118.513 603.144L118.545 603.064L114.817 594.392H117.393L119.809 600.232L122.241 594.392H124.641ZM129.521 603.128C128.615 603.128 127.799 602.941 127.073 602.568C126.359 602.184 125.799 601.656 125.393 600.984C124.988 600.312 124.785 599.549 124.785 598.696C124.785 597.843 124.988 597.08 125.393 596.408C125.799 595.736 126.359 595.213 127.073 594.84C127.799 594.456 128.615 594.264 129.521 594.264C130.428 594.264 131.239 594.456 131.953 594.84C132.668 595.213 133.228 595.736 133.633 596.408C134.039 597.08 134.241 597.843 134.241 598.696C134.241 599.549 134.039 600.312 133.633 600.984C133.228 601.656 132.668 602.184 131.953 602.568C131.239 602.941 130.428 603.128 129.521 603.128ZM129.521 601.08C130.161 601.08 130.684 600.867 131.089 600.44C131.505 600.003 131.713 599.421 131.713 598.696C131.713 597.971 131.505 597.395 131.089 596.968C130.684 596.531 130.161 596.312 129.521 596.312C128.881 596.312 128.353 596.531 127.937 596.968C127.521 597.395 127.313 597.971 127.313 598.696C127.313 599.421 127.521 600.003 127.937 600.44C128.353 600.867 128.881 601.08 129.521 601.08ZM144.582 594.392V603H142.214V601.976C141.883 602.349 141.488 602.637 141.03 602.84C140.571 603.032 140.075 603.128 139.542 603.128C138.411 603.128 137.515 602.803 136.854 602.152C136.192 601.501 135.862 600.536 135.862 599.256V594.392H138.358V598.888C138.358 600.275 138.939 600.968 140.102 600.968C140.699 600.968 141.179 600.776 141.542 600.392C141.904 599.997 142.086 599.416 142.086 598.648V594.392H144.582ZM154.161 594.584H156.369V596.504H154.225V603H151.729V596.504H150.401V594.584H151.729V594.2C151.729 593.219 152.017 592.44 152.593 591.864C153.18 591.288 154.001 591 155.057 591C155.431 591 155.783 591.043 156.113 591.128C156.455 591.203 156.737 591.315 156.961 591.464L156.305 593.272C156.017 593.069 155.681 592.968 155.297 592.968C154.54 592.968 154.161 593.384 154.161 594.216V594.584ZM161.6 603.128C160.693 603.128 159.877 602.941 159.152 602.568C158.437 602.184 157.877 601.656 157.472 600.984C157.066 600.312 156.864 599.549 156.864 598.696C156.864 597.843 157.066 597.08 157.472 596.408C157.877 595.736 158.437 595.213 159.152 594.84C159.877 594.456 160.693 594.264 161.6 594.264C162.506 594.264 163.317 594.456 164.032 594.84C164.746 595.213 165.306 595.736 165.712 596.408C166.117 597.08 166.32 597.843 166.32 598.696C166.32 599.549 166.117 600.312 165.712 600.984C165.306 601.656 164.746 602.184 164.032 602.568C163.317 602.941 162.506 603.128 161.6 603.128ZM161.6 601.08C162.24 601.08 162.762 600.867 163.168 600.44C163.584 600.003 163.792 599.421 163.792 598.696C163.792 597.971 163.584 597.395 163.168 596.968C162.762 596.531 162.24 596.312 161.6 596.312C160.96 596.312 160.432 596.531 160.016 596.968C159.6 597.395 159.392 597.971 159.392 598.696C159.392 599.421 159.6 600.003 160.016 600.44C160.432 600.867 160.96 601.08 161.6 601.08ZM170.372 595.528C170.671 595.112 171.071 594.797 171.572 594.584C172.084 594.371 172.671 594.264 173.332 594.264V596.568C173.055 596.547 172.868 596.536 172.772 596.536C172.057 596.536 171.497 596.739 171.092 597.144C170.687 597.539 170.484 598.136 170.484 598.936V603H167.988V594.392H170.372V595.528ZM183.618 594.392V601.56C183.618 603.139 183.207 604.312 182.386 605.08C181.565 605.848 180.365 606.232 178.786 606.232C177.954 606.232 177.165 606.131 176.418 605.928C175.671 605.725 175.053 605.432 174.562 605.048L175.554 603.256C175.917 603.555 176.375 603.789 176.93 603.96C177.485 604.141 178.039 604.232 178.594 604.232C179.458 604.232 180.093 604.035 180.498 603.64C180.914 603.256 181.122 602.669 181.122 601.88V601.512C180.471 602.227 179.565 602.584 178.402 602.584C177.613 602.584 176.887 602.413 176.226 602.072C175.575 601.72 175.058 601.229 174.674 600.6C174.29 599.971 174.098 599.245 174.098 598.424C174.098 597.603 174.29 596.877 174.674 596.248C175.058 595.619 175.575 595.133 176.226 594.792C176.887 594.44 177.613 594.264 178.402 594.264C179.65 594.264 180.599 594.675 181.25 595.496V594.392H183.618ZM178.898 600.536C179.559 600.536 180.098 600.344 180.514 599.96C180.941 599.565 181.154 599.053 181.154 598.424C181.154 597.795 180.941 597.288 180.514 596.904C180.098 596.509 179.559 596.312 178.898 596.312C178.237 596.312 177.693 596.509 177.266 596.904C176.839 597.288 176.626 597.795 176.626 598.424C176.626 599.053 176.839 599.565 177.266 599.96C177.693 600.344 178.237 600.536 178.898 600.536ZM194.373 598.728C194.373 598.76 194.357 598.984 194.325 599.4H187.813C187.93 599.933 188.208 600.355 188.645 600.664C189.082 600.973 189.626 601.128 190.277 601.128C190.725 601.128 191.12 601.064 191.461 600.936C191.813 600.797 192.138 600.584 192.437 600.296L193.765 601.736C192.954 602.664 191.77 603.128 190.213 603.128C189.242 603.128 188.384 602.941 187.637 602.568C186.89 602.184 186.314 601.656 185.909 600.984C185.504 600.312 185.301 599.549 185.301 598.696C185.301 597.853 185.498 597.096 185.893 596.424C186.298 595.741 186.848 595.213 187.541 594.84C188.245 594.456 189.029 594.264 189.893 594.264C190.736 594.264 191.498 594.445 192.181 594.808C192.864 595.171 193.397 595.693 193.781 596.376C194.176 597.048 194.373 597.832 194.373 598.728ZM189.909 596.152C189.344 596.152 188.869 596.312 188.485 596.632C188.101 596.952 187.866 597.389 187.781 597.944H192.021C191.936 597.4 191.701 596.968 191.317 596.648C190.933 596.317 190.464 596.152 189.909 596.152ZM201.587 602.584C201.341 602.765 201.037 602.904 200.675 603C200.323 603.085 199.949 603.128 199.555 603.128C198.531 603.128 197.736 602.867 197.171 602.344C196.616 601.821 196.339 601.053 196.339 600.04V596.504H195.011V594.584H196.339V592.488H198.835V594.584H200.979V596.504H198.835V600.008C198.835 600.371 198.925 600.653 199.107 600.856C199.299 601.048 199.565 601.144 199.907 601.144C200.301 601.144 200.637 601.037 200.915 600.824L201.587 602.584ZM216.063 594.392L212.175 603.528C211.781 604.52 211.29 605.219 210.703 605.624C210.127 606.029 209.429 606.232 208.607 606.232C208.159 606.232 207.717 606.163 207.279 606.024C206.842 605.885 206.485 605.693 206.207 605.448L207.119 603.672C207.311 603.843 207.53 603.976 207.775 604.072C208.031 604.168 208.282 604.216 208.527 604.216C208.869 604.216 209.146 604.131 209.359 603.96C209.573 603.8 209.765 603.528 209.935 603.144L209.967 603.064L206.239 594.392H208.815L211.231 600.232L213.663 594.392H216.063ZM220.943 603.128C220.037 603.128 219.221 602.941 218.495 602.568C217.781 602.184 217.221 601.656 216.815 600.984C216.41 600.312 216.207 599.549 216.207 598.696C216.207 597.843 216.41 597.08 216.815 596.408C217.221 595.736 217.781 595.213 218.495 594.84C219.221 594.456 220.037 594.264 220.943 594.264C221.85 594.264 222.661 594.456 223.375 594.84C224.09 595.213 224.65 595.736 225.055 596.408C225.461 597.08 225.663 597.843 225.663 598.696C225.663 599.549 225.461 600.312 225.055 600.984C224.65 601.656 224.09 602.184 223.375 602.568C222.661 602.941 221.85 603.128 220.943 603.128ZM220.943 601.08C221.583 601.08 222.106 600.867 222.511 600.44C222.927 600.003 223.135 599.421 223.135 598.696C223.135 597.971 222.927 597.395 222.511 596.968C222.106 596.531 221.583 596.312 220.943 596.312C220.303 596.312 219.775 596.531 219.359 596.968C218.943 597.395 218.735 597.971 218.735 598.696C218.735 599.421 218.943 600.003 219.359 600.44C219.775 600.867 220.303 601.08 220.943 601.08ZM236.004 594.392V603H233.636V601.976C233.305 602.349 232.91 602.637 232.452 602.84C231.993 603.032 231.497 603.128 230.964 603.128C229.833 603.128 228.937 602.803 228.276 602.152C227.614 601.501 227.284 600.536 227.284 599.256V594.392H229.78V598.888C229.78 600.275 230.361 600.968 231.524 600.968C232.121 600.968 232.601 600.776 232.964 600.392C233.326 599.997 233.508 599.416 233.508 598.648V594.392H236.004ZM240.7 595.528C240.999 595.112 241.399 594.797 241.9 594.584C242.412 594.371 242.999 594.264 243.66 594.264V596.568C243.383 596.547 243.196 596.536 243.1 596.536C242.385 596.536 241.825 596.739 241.42 597.144C241.015 597.539 240.812 598.136 240.812 598.936V603H238.316V594.392H240.7V595.528ZM254.826 594.264C255.626 594.264 256.351 594.451 257.002 594.824C257.663 595.187 258.181 595.704 258.554 596.376C258.927 597.037 259.114 597.811 259.114 598.696C259.114 599.581 258.927 600.36 258.554 601.032C258.181 601.693 257.663 602.211 257.002 602.584C256.351 602.947 255.626 603.128 254.826 603.128C253.727 603.128 252.863 602.781 252.234 602.088V606.104H249.738V594.392H252.122V595.384C252.741 594.637 253.642 594.264 254.826 594.264ZM254.394 601.08C255.034 601.08 255.557 600.867 255.962 600.44C256.378 600.003 256.586 599.421 256.586 598.696C256.586 597.971 256.378 597.395 255.962 596.968C255.557 596.531 255.034 596.312 254.394 596.312C253.754 596.312 253.226 596.531 252.81 596.968C252.405 597.395 252.202 597.971 252.202 598.696C252.202 599.421 252.405 600.003 252.81 600.44C253.226 600.867 253.754 601.08 254.394 601.08ZM264.116 594.264C265.45 594.264 266.474 594.584 267.188 595.224C267.903 595.853 268.26 596.808 268.26 598.088V603H265.924V601.928C265.455 602.728 264.58 603.128 263.3 603.128C262.639 603.128 262.063 603.016 261.572 602.792C261.092 602.568 260.724 602.259 260.468 601.864C260.212 601.469 260.084 601.021 260.084 600.52C260.084 599.72 260.383 599.091 260.98 598.632C261.588 598.173 262.522 597.944 263.78 597.944H265.764C265.764 597.4 265.599 596.984 265.268 596.696C264.938 596.397 264.442 596.248 263.78 596.248C263.322 596.248 262.868 596.323 262.42 596.472C261.983 596.611 261.61 596.803 261.3 597.048L260.404 595.304C260.874 594.973 261.434 594.717 262.084 594.536C262.746 594.355 263.423 594.264 264.116 594.264ZM263.924 601.448C264.351 601.448 264.73 601.352 265.06 601.16C265.391 600.957 265.626 600.664 265.764 600.28V599.4H264.052C263.028 599.4 262.516 599.736 262.516 600.408C262.516 600.728 262.639 600.984 262.884 601.176C263.14 601.357 263.487 601.448 263.924 601.448ZM273.415 603.128C272.701 603.128 272.002 603.043 271.319 602.872C270.637 602.691 270.093 602.467 269.687 602.2L270.519 600.408C270.903 600.653 271.367 600.856 271.911 601.016C272.455 601.165 272.989 601.24 273.511 601.24C274.567 601.24 275.095 600.979 275.095 600.456C275.095 600.211 274.951 600.035 274.663 599.928C274.375 599.821 273.933 599.731 273.335 599.656C272.631 599.549 272.05 599.427 271.591 599.288C271.133 599.149 270.733 598.904 270.391 598.552C270.061 598.2 269.895 597.699 269.895 597.048C269.895 596.504 270.05 596.024 270.359 595.608C270.679 595.181 271.138 594.851 271.735 594.616C272.343 594.381 273.058 594.264 273.879 594.264C274.487 594.264 275.09 594.333 275.687 594.472C276.295 594.6 276.797 594.781 277.191 595.016L276.359 596.792C275.602 596.365 274.775 596.152 273.879 596.152C273.346 596.152 272.946 596.227 272.679 596.376C272.413 596.525 272.279 596.717 272.279 596.952C272.279 597.219 272.423 597.405 272.711 597.512C272.999 597.619 273.458 597.72 274.087 597.816C274.791 597.933 275.367 598.061 275.815 598.2C276.263 598.328 276.653 598.568 276.983 598.92C277.314 599.272 277.479 599.763 277.479 600.392C277.479 600.925 277.319 601.4 276.999 601.816C276.679 602.232 276.21 602.557 275.591 602.792C274.983 603.016 274.258 603.128 273.415 603.128ZM281.915 603.128C281.201 603.128 280.502 603.043 279.819 602.872C279.137 602.691 278.593 602.467 278.187 602.2L279.019 600.408C279.403 600.653 279.867 600.856 280.411 601.016C280.955 601.165 281.489 601.24 282.011 601.24C283.067 601.24 283.595 600.979 283.595 600.456C283.595 600.211 283.451 600.035 283.163 599.928C282.875 599.821 282.433 599.731 281.835 599.656C281.131 599.549 280.55 599.427 280.091 599.288C279.633 599.149 279.233 598.904 278.891 598.552C278.561 598.2 278.395 597.699 278.395 597.048C278.395 596.504 278.55 596.024 278.859 595.608C279.179 595.181 279.638 594.851 280.235 594.616C280.843 594.381 281.558 594.264 282.379 594.264C282.987 594.264 283.59 594.333 284.187 594.472C284.795 594.6 285.297 594.781 285.691 595.016L284.859 596.792C284.102 596.365 283.275 596.152 282.379 596.152C281.846 596.152 281.446 596.227 281.179 596.376C280.913 596.525 280.779 596.717 280.779 596.952C280.779 597.219 280.923 597.405 281.211 597.512C281.499 597.619 281.958 597.72 282.587 597.816C283.291 597.933 283.867 598.061 284.315 598.2C284.763 598.328 285.153 598.568 285.483 598.92C285.814 599.272 285.979 599.763 285.979 600.392C285.979 600.925 285.819 601.4 285.499 601.816C285.179 602.232 284.71 602.557 284.091 602.792C283.483 603.016 282.758 603.128 281.915 603.128ZM301.187 594.392L298.067 603H295.667L293.731 597.656L291.731 603H289.331L286.227 594.392H288.579L290.611 600.216L292.723 594.392H294.835L296.883 600.216L298.979 594.392H301.187ZM306.209 603.128C305.302 603.128 304.486 602.941 303.761 602.568C303.046 602.184 302.486 601.656 302.081 600.984C301.676 600.312 301.473 599.549 301.473 598.696C301.473 597.843 301.676 597.08 302.081 596.408C302.486 595.736 303.046 595.213 303.761 594.84C304.486 594.456 305.302 594.264 306.209 594.264C307.116 594.264 307.926 594.456 308.641 594.84C309.356 595.213 309.916 595.736 310.321 596.408C310.726 597.08 310.929 597.843 310.929 598.696C310.929 599.549 310.726 600.312 310.321 600.984C309.916 601.656 309.356 602.184 308.641 602.568C307.926 602.941 307.116 603.128 306.209 603.128ZM306.209 601.08C306.849 601.08 307.372 600.867 307.777 600.44C308.193 600.003 308.401 599.421 308.401 598.696C308.401 597.971 308.193 597.395 307.777 596.968C307.372 596.531 306.849 596.312 306.209 596.312C305.569 596.312 305.041 596.531 304.625 596.968C304.209 597.395 304.001 597.971 304.001 598.696C304.001 599.421 304.209 600.003 304.625 600.44C305.041 600.867 305.569 601.08 306.209 601.08ZM314.981 595.528C315.28 595.112 315.68 594.797 316.181 594.584C316.693 594.371 317.28 594.264 317.941 594.264V596.568C317.664 596.547 317.477 596.536 317.381 596.536C316.667 596.536 316.107 596.739 315.701 597.144C315.296 597.539 315.093 598.136 315.093 598.936V603H312.597V594.392H314.981V595.528ZM328.115 591.128V603H325.731V602.008C325.113 602.755 324.217 603.128 323.043 603.128C322.233 603.128 321.497 602.947 320.835 602.584C320.185 602.221 319.673 601.704 319.299 601.032C318.926 600.36 318.739 599.581 318.739 598.696C318.739 597.811 318.926 597.032 319.299 596.36C319.673 595.688 320.185 595.171 320.835 594.808C321.497 594.445 322.233 594.264 323.043 594.264C324.142 594.264 325.001 594.611 325.619 595.304V591.128H328.115ZM323.475 601.08C324.105 601.08 324.627 600.867 325.043 600.44C325.459 600.003 325.667 599.421 325.667 598.696C325.667 597.971 325.459 597.395 325.043 596.968C324.627 596.531 324.105 596.312 323.475 596.312C322.835 596.312 322.307 596.531 321.891 596.968C321.475 597.395 321.267 597.971 321.267 598.696C321.267 599.421 321.475 600.003 321.891 600.44C322.307 600.867 322.835 601.08 323.475 601.08ZM332.745 599.112C332.745 598.557 332.868 598.099 333.113 597.736C333.369 597.373 333.737 596.973 334.217 596.536C334.569 596.216 334.825 595.949 334.985 595.736C335.156 595.512 335.241 595.261 335.241 594.984C335.241 594.589 335.081 594.28 334.761 594.056C334.452 593.821 334.036 593.704 333.513 593.704C333.012 593.704 332.564 593.811 332.169 594.024C331.785 594.227 331.46 594.515 331.193 594.888L329.257 593.752C329.705 593.069 330.308 592.541 331.065 592.168C331.833 591.795 332.74 591.608 333.785 591.608C335.012 591.608 335.993 591.869 336.729 592.392C337.476 592.915 337.849 593.64 337.849 594.568C337.849 595.005 337.775 595.389 337.625 595.72C337.487 596.051 337.311 596.333 337.097 596.568C336.895 596.792 336.628 597.053 336.297 597.352C335.903 597.704 335.615 598.003 335.433 598.248C335.252 598.483 335.161 598.771 335.161 599.112H332.745ZM333.961 603.128C333.524 603.128 333.156 602.989 332.857 602.712C332.569 602.424 332.425 602.077 332.425 601.672C332.425 601.267 332.569 600.931 332.857 600.664C333.145 600.387 333.513 600.248 333.961 600.248C334.409 600.248 334.777 600.387 335.065 600.664C335.353 600.931 335.497 601.267 335.497 601.672C335.497 602.077 335.348 602.424 335.049 602.712C334.761 602.989 334.399 603.128 333.961 603.128Z" fill="black"/>
<rect x="36" y="685" width="364" height="62" rx="31" fill="#1B9583"/>
<path d="M99.1414 724.288C97.4294 724.288 95.8774 723.92 94.4854 723.184C93.1094 722.432 92.0214 721.4 91.2214 720.088C90.4374 718.76 90.0454 717.264 90.0454 715.6C90.0454 713.936 90.4374 712.448 91.2214 711.136C92.0214 709.808 93.1094 708.776 94.4854 708.04C95.8774 707.288 97.4374 706.912 99.1654 706.912C100.621 706.912 101.933 707.168 103.101 707.68C104.285 708.192 105.277 708.928 106.077 709.888L103.581 712.192C102.445 710.88 101.037 710.224 99.3574 710.224C98.3174 710.224 97.3894 710.456 96.5734 710.92C95.7574 711.368 95.1174 712 94.6534 712.816C94.2054 713.632 93.9814 714.56 93.9814 715.6C93.9814 716.64 94.2054 717.568 94.6534 718.384C95.1174 719.2 95.7574 719.84 96.5734 720.304C97.3894 720.752 98.3174 720.976 99.3574 720.976C101.037 720.976 102.445 720.312 103.581 718.984L106.077 721.288C105.277 722.264 104.285 723.008 103.101 723.52C101.917 724.032 100.597 724.288 99.1414 724.288ZM114.138 724.192C112.778 724.192 111.554 723.912 110.466 723.352C109.394 722.776 108.554 721.984 107.946 720.976C107.338 719.968 107.034 718.824 107.034 717.544C107.034 716.264 107.338 715.12 107.946 714.112C108.554 713.104 109.394 712.32 110.466 711.76C111.554 711.184 112.778 710.896 114.138 710.896C115.498 710.896 116.714 711.184 117.786 711.76C118.858 712.32 119.698 713.104 120.306 714.112C120.914 715.12 121.218 716.264 121.218 717.544C121.218 718.824 120.914 719.968 120.306 720.976C119.698 721.984 118.858 722.776 117.786 723.352C116.714 723.912 115.498 724.192 114.138 724.192ZM114.138 721.12C115.098 721.12 115.882 720.8 116.49 720.16C117.114 719.504 117.426 718.632 117.426 717.544C117.426 716.456 117.114 715.592 116.49 714.952C115.882 714.296 115.098 713.968 114.138 713.968C113.178 713.968 112.386 714.296 111.762 714.952C111.138 715.592 110.826 716.456 110.826 717.544C110.826 718.632 111.138 719.504 111.762 720.16C112.386 720.8 113.178 721.12 114.138 721.12ZM131.568 710.896C133.168 710.896 134.456 711.376 135.432 712.336C136.424 713.296 136.92 714.72 136.92 716.608V724H133.176V717.184C133.176 716.16 132.952 715.4 132.504 714.904C132.056 714.392 131.408 714.136 130.56 714.136C129.616 714.136 128.864 714.432 128.304 715.024C127.744 715.6 127.464 716.464 127.464 717.616V724H123.72V711.088H127.296V712.6C127.792 712.056 128.408 711.64 129.144 711.352C129.88 711.048 130.688 710.896 131.568 710.896ZM148.642 723.376C148.274 723.648 147.818 723.856 147.274 724C146.746 724.128 146.186 724.192 145.594 724.192C144.058 724.192 142.866 723.8 142.018 723.016C141.186 722.232 140.77 721.08 140.77 719.56V714.256H138.778V711.376H140.77V708.232H144.514V711.376H147.73V714.256H144.514V719.512C144.514 720.056 144.65 720.48 144.922 720.784C145.21 721.072 145.61 721.216 146.122 721.216C146.714 721.216 147.218 721.056 147.634 720.736L148.642 723.376ZM150.744 711.088H154.488V724H150.744V711.088ZM152.616 709.288C151.928 709.288 151.368 709.088 150.936 708.688C150.504 708.288 150.288 707.792 150.288 707.2C150.288 706.608 150.504 706.112 150.936 705.712C151.368 705.312 151.928 705.112 152.616 705.112C153.304 705.112 153.864 705.304 154.296 705.688C154.728 706.072 154.944 706.552 154.944 707.128C154.944 707.752 154.728 708.272 154.296 708.688C153.864 709.088 153.304 709.288 152.616 709.288ZM165.81 710.896C167.41 710.896 168.698 711.376 169.674 712.336C170.666 713.296 171.162 714.72 171.162 716.608V724H167.418V717.184C167.418 716.16 167.194 715.4 166.746 714.904C166.298 714.392 165.65 714.136 164.802 714.136C163.858 714.136 163.106 714.432 162.546 715.024C161.986 715.6 161.706 716.464 161.706 717.616V724H157.962V711.088H161.538V712.6C162.034 712.056 162.65 711.64 163.386 711.352C164.122 711.048 164.93 710.896 165.81 710.896ZM187.564 711.088V724H184.012V722.464C183.516 723.024 182.924 723.456 182.236 723.76C181.548 724.048 180.804 724.192 180.004 724.192C178.308 724.192 176.964 723.704 175.972 722.728C174.98 721.752 174.484 720.304 174.484 718.384V711.088H178.228V717.832C178.228 719.912 179.1 720.952 180.844 720.952C181.74 720.952 182.46 720.664 183.004 720.088C183.548 719.496 183.82 718.624 183.82 717.472V711.088H187.564ZM203.681 717.592C203.681 717.64 203.657 717.976 203.609 718.6H193.841C194.017 719.4 194.433 720.032 195.089 720.496C195.745 720.96 196.561 721.192 197.537 721.192C198.209 721.192 198.801 721.096 199.313 720.904C199.841 720.696 200.329 720.376 200.777 719.944L202.769 722.104C201.553 723.496 199.777 724.192 197.441 724.192C195.985 724.192 194.697 723.912 193.577 723.352C192.457 722.776 191.593 721.984 190.985 720.976C190.377 719.968 190.073 718.824 190.073 717.544C190.073 716.28 190.369 715.144 190.961 714.136C191.569 713.112 192.393 712.32 193.433 711.76C194.489 711.184 195.665 710.896 196.961 710.896C198.225 710.896 199.369 711.168 200.393 711.712C201.417 712.256 202.217 713.04 202.793 714.064C203.385 715.072 203.681 716.248 203.681 717.592ZM196.985 713.728C196.137 713.728 195.425 713.968 194.849 714.448C194.273 714.928 193.921 715.584 193.793 716.416H200.153C200.025 715.6 199.673 714.952 199.097 714.472C198.521 713.976 197.817 713.728 196.985 713.728ZM233.706 711.088L229.026 724H225.426L222.522 715.984L219.522 724H215.922L211.266 711.088H214.794L217.842 719.824L221.01 711.088H224.178L227.25 719.824L230.394 711.088H233.706ZM235.447 711.088H239.191V724H235.447V711.088ZM237.319 709.288C236.631 709.288 236.071 709.088 235.639 708.688C235.207 708.288 234.991 707.792 234.991 707.2C234.991 706.608 235.207 706.112 235.639 705.712C236.071 705.312 236.631 705.112 237.319 705.112C238.007 705.112 238.567 705.304 238.999 705.688C239.431 706.072 239.647 706.552 239.647 707.128C239.647 707.752 239.431 708.272 238.999 708.688C238.567 709.088 238.007 709.288 237.319 709.288ZM250.994 723.376C250.626 723.648 250.17 723.856 249.626 724C249.098 724.128 248.538 724.192 247.946 724.192C246.41 724.192 245.218 723.8 244.37 723.016C243.538 722.232 243.122 721.08 243.122 719.56V714.256H241.13V711.376H243.122V708.232H246.866V711.376H250.082V714.256H246.866V719.512C246.866 720.056 247.002 720.48 247.273 720.784C247.562 721.072 247.962 721.216 248.474 721.216C249.066 721.216 249.57 721.056 249.986 720.736L250.994 723.376ZM260.943 710.896C262.543 710.896 263.831 711.376 264.807 712.336C265.799 713.296 266.295 714.72 266.295 716.608V724H262.551V717.184C262.551 716.16 262.327 715.4 261.879 714.904C261.431 714.392 260.783 714.136 259.935 714.136C258.991 714.136 258.239 714.432 257.679 715.024C257.119 715.6 256.839 716.464 256.839 717.616V724H253.095V706.192H256.839V712.432C257.335 711.936 257.935 711.56 258.639 711.304C259.343 711.032 260.111 710.896 260.943 710.896ZM288.102 715.336H291.654V722.152C290.742 722.84 289.686 723.368 288.486 723.736C287.286 724.104 286.078 724.288 284.862 724.288C283.118 724.288 281.55 723.92 280.158 723.184C278.766 722.432 277.67 721.4 276.87 720.088C276.086 718.76 275.694 717.264 275.694 715.6C275.694 713.936 276.086 712.448 276.87 711.136C277.67 709.808 278.774 708.776 280.182 708.04C281.59 707.288 283.174 706.912 284.934 706.912C286.406 706.912 287.742 707.16 288.942 707.656C290.142 708.152 291.15 708.872 291.966 709.816L289.47 712.12C288.27 710.856 286.822 710.224 285.126 710.224C284.054 710.224 283.102 710.448 282.27 710.896C281.438 711.344 280.79 711.976 280.326 712.792C279.862 713.608 279.63 714.544 279.63 715.6C279.63 716.64 279.862 717.568 280.326 718.384C280.79 719.2 281.43 719.84 282.246 720.304C283.078 720.752 284.022 720.976 285.078 720.976C286.198 720.976 287.206 720.736 288.102 720.256V715.336ZM301.145 724.192C299.785 724.192 298.561 723.912 297.473 723.352C296.401 722.776 295.561 721.984 294.953 720.976C294.345 719.968 294.041 718.824 294.041 717.544C294.041 716.264 294.345 715.12 294.953 714.112C295.561 713.104 296.401 712.32 297.473 711.76C298.561 711.184 299.785 710.896 301.145 710.896C302.505 710.896 303.721 711.184 304.793 711.76C305.865 712.32 306.705 713.104 307.313 714.112C307.921 715.12 308.225 716.264 308.225 717.544C308.225 718.824 307.921 719.968 307.313 720.976C306.705 721.984 305.865 722.776 304.793 723.352C303.721 723.912 302.505 724.192 301.145 724.192ZM301.145 721.12C302.105 721.12 302.889 720.8 303.497 720.16C304.121 719.504 304.433 718.632 304.433 717.544C304.433 716.456 304.121 715.592 303.497 714.952C302.889 714.296 302.105 713.968 301.145 713.968C300.185 713.968 299.393 714.296 298.769 714.952C298.145 715.592 297.833 716.456 297.833 717.544C297.833 718.632 298.145 719.504 298.769 720.16C299.393 720.8 300.185 721.12 301.145 721.12ZM316.872 724.192C315.512 724.192 314.288 723.912 313.2 723.352C312.128 722.776 311.288 721.984 310.68 720.976C310.072 719.968 309.768 718.824 309.768 717.544C309.768 716.264 310.072 715.12 310.68 714.112C311.288 713.104 312.128 712.32 313.2 711.76C314.288 711.184 315.512 710.896 316.872 710.896C318.232 710.896 319.448 711.184 320.52 711.76C321.592 712.32 322.432 713.104 323.04 714.112C323.648 715.12 323.952 716.264 323.952 717.544C323.952 718.824 323.648 719.968 323.04 720.976C322.432 721.984 321.592 722.776 320.52 723.352C319.448 723.912 318.232 724.192 316.872 724.192ZM316.872 721.12C317.832 721.12 318.616 720.8 319.224 720.16C319.848 719.504 320.16 718.632 320.16 717.544C320.16 716.456 319.848 715.592 319.224 714.952C318.616 714.296 317.832 713.968 316.872 713.968C315.912 713.968 315.12 714.296 314.496 714.952C313.872 715.592 313.56 716.456 313.56 717.544C313.56 718.632 313.872 719.504 314.496 720.16C315.12 720.8 315.912 721.12 316.872 721.12ZM339.775 711.088V721.84C339.775 724.208 339.159 725.968 337.927 727.12C336.695 728.272 334.895 728.848 332.527 728.848C331.279 728.848 330.095 728.696 328.975 728.392C327.855 728.088 326.927 727.648 326.191 727.072L327.679 724.384C328.223 724.832 328.911 725.184 329.743 725.44C330.575 725.712 331.407 725.848 332.239 725.848C333.535 725.848 334.487 725.552 335.095 724.96C335.719 724.384 336.031 723.504 336.031 722.32V721.768C335.055 722.84 333.695 723.376 331.951 723.376C330.767 723.376 329.679 723.12 328.687 722.608C327.711 722.08 326.935 721.344 326.359 720.4C325.783 719.456 325.495 718.368 325.495 717.136C325.495 715.904 325.783 714.816 326.359 713.872C326.935 712.928 327.711 712.2 328.687 711.688C329.679 711.16 330.767 710.896 331.951 710.896C333.823 710.896 335.247 711.512 336.223 712.744V711.088H339.775ZM332.695 720.304C333.687 720.304 334.495 720.016 335.119 719.44C335.759 718.848 336.079 718.08 336.079 717.136C336.079 716.192 335.759 715.432 335.119 714.856C334.495 714.264 333.687 713.968 332.695 713.968C331.703 713.968 330.887 714.264 330.247 714.856C329.607 715.432 329.287 716.192 329.287 717.136C329.287 718.08 329.607 718.848 330.247 719.44C330.887 720.016 331.703 720.304 332.695 720.304ZM343.259 706.192H347.003V724H343.259V706.192ZM363.126 717.592C363.126 717.64 363.102 717.976 363.054 718.6H353.286C353.462 719.4 353.878 720.032 354.534 720.496C355.19 720.96 356.006 721.192 356.982 721.192C357.654 721.192 358.246 721.096 358.758 720.904C359.286 720.696 359.774 720.376 360.222 719.944L362.214 722.104C360.998 723.496 359.222 724.192 356.886 724.192C355.43 724.192 354.142 723.912 353.022 723.352C351.902 722.776 351.038 721.984 350.43 720.976C349.822 719.968 349.518 718.824 349.518 717.544C349.518 716.28 349.814 715.144 350.406 714.136C351.014 713.112 351.838 712.32 352.878 711.76C353.934 711.184 355.11 710.896 356.406 710.896C357.67 710.896 358.814 711.168 359.838 711.712C360.862 712.256 361.662 713.04 362.238 714.064C362.83 715.072 363.126 716.248 363.126 717.592ZM356.43 713.728C355.582 713.728 354.87 713.968 354.294 714.448C353.718 714.928 353.366 715.584 353.238 716.416H359.598C359.47 715.6 359.118 714.952 358.542 714.472C357.966 713.976 357.262 713.728 356.43 713.728Z" fill="white"/>
<rect x="43" y="697" width="37" height="37" rx="18.5" fill="white"/>
<path d="M76.6168 712.481H75.375V712.417H61.5V718.583H70.2127C68.9416 722.173 65.526 724.75 61.5 724.75C56.3917 724.75 52.25 720.608 52.25 715.5C52.25 710.392 56.3917 706.25 61.5 706.25C63.858 706.25 66.0032 707.14 67.6366 708.593L71.9972 704.232C69.2438 701.666 65.5607 700.083 61.5 700.083C52.9861 700.083 46.0833 706.986 46.0833 715.5C46.0833 724.014 52.9861 730.917 61.5 730.917C70.0138 730.917 76.9166 724.014 76.9166 715.5C76.9166 714.466 76.8103 713.457 76.6168 712.481Z" fill="#FFC107"/>
<path d="M47.8609 708.324L52.926 712.039C54.2966 708.646 57.6158 706.25 61.5 706.25C63.858 706.25 66.0032 707.14 67.6366 708.593L71.9972 704.232C69.2438 701.666 65.5608 700.083 61.5 700.083C55.5785 700.083 50.4432 703.426 47.8609 708.324Z" fill="#FF3D00"/>
<path d="M61.5 730.917C65.4821 730.917 69.1004 729.393 71.8361 726.914L67.0647 722.877C65.4648 724.094 63.5099 724.752 61.5 724.75C57.4901 724.75 54.0854 722.193 52.8027 718.625L47.7753 722.498C50.3268 727.491 55.5083 730.917 61.5 730.917Z" fill="#4CAF50"/>
<path d="M76.6168 712.481H75.375V712.417H61.5V718.583H70.2127C69.6047 720.292 68.5095 721.785 67.0623 722.878L67.0646 722.876L71.8361 726.914C71.4985 727.221 76.9167 723.208 76.9167 715.5C76.9167 714.466 76.8103 713.457 76.6168 712.481Z" fill="#1976D2"/>
<path d="M208.341 646.192C206.981 646.192 205.757 645.912 204.669 645.352C203.597 644.776 202.757 643.984 202.149 642.976C201.541 641.968 201.237 640.824 201.237 639.544C201.237 638.264 201.541 637.12 202.149 636.112C202.757 635.104 203.597 634.32 204.669 633.76C205.757 633.184 206.981 632.896 208.341 632.896C209.701 632.896 210.917 633.184 211.989 633.76C213.061 634.32 213.901 635.104 214.509 636.112C215.117 637.12 215.421 638.264 215.421 639.544C215.421 640.824 215.117 641.968 214.509 642.976C213.901 643.984 213.061 644.776 211.989 645.352C210.917 645.912 209.701 646.192 208.341 646.192ZM208.341 643.12C209.301 643.12 210.085 642.8 210.693 642.16C211.317 641.504 211.629 640.632 211.629 639.544C211.629 638.456 211.317 637.592 210.693 636.952C210.085 636.296 209.301 635.968 208.341 635.968C207.381 635.968 206.589 636.296 205.965 636.952C205.341 637.592 205.029 638.456 205.029 639.544C205.029 640.632 205.341 641.504 205.965 642.16C206.589 642.8 207.381 643.12 208.341 643.12ZM221.499 634.792C221.947 634.168 222.547 633.696 223.299 633.376C224.067 633.056 224.947 632.896 225.939 632.896V636.352C225.523 636.32 225.243 636.304 225.099 636.304C224.027 636.304 223.187 636.608 222.579 637.216C221.971 637.808 221.667 638.704 221.667 639.904V646H217.923V633.088H221.499V634.792Z" fill="white"/>
<path d="M49 638H189" stroke="white"/>
<path d="M249 638H389" stroke="white"/>
<rect x="36" y="780" width="364" height="62" rx="31" fill="#1B9583"/>
<path d="M167.536 820.36C165.876 820.36 164.266 820.14 162.706 819.7C161.166 819.24 159.926 818.65 158.986 817.93L160.636 814.27C161.536 814.93 162.606 815.46 163.846 815.86C165.086 816.26 166.326 816.46 167.566 816.46C168.946 816.46 169.966 816.26 170.626 815.86C171.286 815.44 171.616 814.89 171.616 814.21C171.616 813.71 171.416 813.3 171.016 812.98C170.636 812.64 170.136 812.37 169.516 812.17C168.916 811.97 168.096 811.75 167.056 811.51C165.456 811.13 164.146 810.75 163.126 810.37C162.106 809.99 161.226 809.38 160.486 808.54C159.766 807.7 159.406 806.58 159.406 805.18C159.406 803.96 159.736 802.86 160.396 801.88C161.056 800.88 162.046 800.09 163.366 799.51C164.706 798.93 166.336 798.64 168.256 798.64C169.596 798.64 170.906 798.8 172.186 799.12C173.466 799.44 174.586 799.9 175.546 800.5L174.046 804.19C172.106 803.09 170.166 802.54 168.226 802.54C166.866 802.54 165.856 802.76 165.196 803.2C164.556 803.64 164.236 804.22 164.236 804.94C164.236 805.66 164.606 806.2 165.346 806.56C166.106 806.9 167.256 807.24 168.796 807.58C170.396 807.96 171.706 808.34 172.726 808.72C173.746 809.1 174.616 809.7 175.336 810.52C176.076 811.34 176.446 812.45 176.446 813.85C176.446 815.05 176.106 816.15 175.426 817.15C174.766 818.13 173.766 818.91 172.426 819.49C171.086 820.07 169.456 820.36 167.536 820.36ZM179.437 803.86H184.117V820H179.437V803.86ZM181.777 801.61C180.917 801.61 180.217 801.36 179.677 800.86C179.137 800.36 178.867 799.74 178.867 799C178.867 798.26 179.137 797.64 179.677 797.14C180.217 796.64 180.917 796.39 181.777 796.39C182.637 796.39 183.337 796.63 183.877 797.11C184.417 797.59 184.687 798.19 184.687 798.91C184.687 799.69 184.417 800.34 183.877 800.86C183.337 801.36 182.637 801.61 181.777 801.61ZM205.111 803.86V817.3C205.111 820.26 204.341 822.46 202.801 823.9C201.261 825.34 199.011 826.06 196.051 826.06C194.491 826.06 193.011 825.87 191.611 825.49C190.211 825.11 189.051 824.56 188.131 823.84L189.991 820.48C190.671 821.04 191.531 821.48 192.571 821.8C193.611 822.14 194.651 822.31 195.691 822.31C197.311 822.31 198.501 821.94 199.261 821.2C200.041 820.48 200.431 819.38 200.431 817.9V817.21C199.211 818.55 197.511 819.22 195.331 819.22C193.851 819.22 192.491 818.9 191.251 818.26C190.031 817.6 189.061 816.68 188.341 815.5C187.621 814.32 187.261 812.96 187.261 811.42C187.261 809.88 187.621 808.52 188.341 807.34C189.061 806.16 190.031 805.25 191.251 804.61C192.491 803.95 193.851 803.62 195.331 803.62C197.671 803.62 199.451 804.39 200.671 805.93V803.86H205.111ZM196.261 815.38C197.501 815.38 198.511 815.02 199.291 814.3C200.091 813.56 200.491 812.6 200.491 811.42C200.491 810.24 200.091 809.29 199.291 808.57C198.511 807.83 197.501 807.46 196.261 807.46C195.021 807.46 194.001 807.83 193.201 808.57C192.401 809.29 192.001 810.24 192.001 811.42C192.001 812.6 192.401 813.56 193.201 814.3C194.001 815.02 195.021 815.38 196.261 815.38ZM219.277 803.62C221.277 803.62 222.887 804.22 224.107 805.42C225.347 806.62 225.967 808.4 225.967 810.76V820H221.287V811.48C221.287 810.2 221.007 809.25 220.447 808.63C219.887 807.99 219.077 807.67 218.017 807.67C216.837 807.67 215.897 808.04 215.197 808.78C214.497 809.5 214.147 810.58 214.147 812.02V820H209.467V803.86H213.937V805.75C214.557 805.07 215.327 804.55 216.247 804.19C217.167 803.81 218.177 803.62 219.277 803.62ZM254.965 803.86V820H250.525V818.08C249.905 818.78 249.165 819.32 248.305 819.7C247.445 820.06 246.515 820.24 245.515 820.24C243.395 820.24 241.715 819.63 240.475 818.41C239.235 817.19 238.615 815.38 238.615 812.98V803.86H243.295V812.29C243.295 814.89 244.385 816.19 246.565 816.19C247.685 816.19 248.585 815.83 249.265 815.11C249.945 814.37 250.285 813.28 250.285 811.84V803.86H254.965ZM268.841 803.62C270.341 803.62 271.701 803.97 272.921 804.67C274.161 805.35 275.131 806.32 275.831 807.58C276.531 808.82 276.881 810.27 276.881 811.93C276.881 813.59 276.531 815.05 275.831 816.31C275.131 817.55 274.161 818.52 272.921 819.22C271.701 819.9 270.341 820.24 268.841 820.24C266.781 820.24 265.161 819.59 263.981 818.29V825.82H259.301V803.86H263.771V805.72C264.931 804.32 266.621 803.62 268.841 803.62ZM268.031 816.4C269.231 816.4 270.211 816 270.971 815.2C271.751 814.38 272.141 813.29 272.141 811.93C272.141 810.57 271.751 809.49 270.971 808.69C270.211 807.87 269.231 807.46 268.031 807.46C266.831 807.46 265.841 807.87 265.061 808.69C264.301 809.49 263.921 810.57 263.921 811.93C263.921 813.29 264.301 814.38 265.061 815.2C265.841 816 266.831 816.4 268.031 816.4Z" fill="white"/>
<path d="M24.0282 66.8028C26.9632 73.4703 29.6244 87.5564 31.527 91.9432M31.527 91.9432C48.8815 83.7351 71.4025 73.6634 98.0635 65.3173C124.725 56.9713 130.317 54.8295 139.941 54.1136C162.937 50.9546 164.664 51.1093 169.62 51.0619M31.527 91.9432L53.7172 132.897M169.62 51.0619C172.161 50.6623 298.802 -13.0062 298.802 -13.0062L398.056 -63.7095L422.75 -72.3263M169.62 51.0619C164.635 68.9466 152.5 82.8446 136.252 101.949M507.524 -55.6454L486.546 -70.2389L466.995 -75.591M323.173 33.0299L339.234 13.3037L380.509 2.31007L431.027 28.996L378.207 96.1235L332.253 154.525M323.173 33.0299L303.899 39.7551L228.01 66.2359C222.009 68.605 191.937 84.5329 180.802 88.552C169.667 92.571 164.205 95.5624 134.425 104.735M323.173 33.0299L253.078 123.527M134.425 104.735L53.7172 132.897M134.425 104.735L136.252 101.949M53.7172 132.897C62.2604 134.785 98.5379 149.397 98.5379 149.397M53.7172 132.897L-50.5592 271.545M98.5379 149.397L136.252 101.949M98.5379 149.397L130.08 161.765M201.707 189.851L281.546 218.967M201.707 189.851L253.078 123.527M201.707 189.851L151.566 253.608M201.707 189.851L150.123 169.624M281.546 218.967L332.253 154.525M281.546 218.967L395.404 259.587M281.546 218.967L229.861 284.237M253.078 123.527L332.253 154.525M332.253 154.525L411.269 180.594L395.404 259.587M395.404 259.587L328.025 323.516L229.861 284.237M229.861 284.237L151.566 253.608M229.861 284.237L181.298 353.288M151.566 253.608L98.4655 236.102M151.566 253.608L110.155 322.111M98.4655 236.102L150.123 169.624M98.4655 236.102L84.2591 230.833M150.123 169.624L130.08 161.765M130.08 161.765L84.2591 230.833M84.2591 230.833L38.6527 296.417M38.6527 296.417L110.155 322.111M38.6527 296.417L-50.5592 271.545M110.155 322.111L181.298 353.288M181.298 353.288L201.715 359.312M-50.5592 271.545L-94.2807 323.324L-166.083 301.143L-119.145 239.964M20.3589 65.6483C65.5764 49.3229 87.827 41.6083 123.954 29.5L289.599 -59.4655L387.482 -116.995L433.092 -97.8484M433.092 -97.8484L422.75 -72.3263M433.092 -97.8484L447.444 -80.943L422.75 -72.3263M8.56676 146.503L-162.627 176.735L-186.974 211.039L-119.145 239.964M-94.0232 250.676L-119.145 239.964" stroke="url(#paint0_linear_7_672)" stroke-opacity="0.3" stroke-width="5"/>
<path d="M40.8949 293.437L130.126 162.469L54.5686 133.096L32.9401 91.7799L61.2305 78.3301" stroke="#05CAAD" stroke-opacity="0.2" stroke-width="2"/>
<path d="M157.735 147.705L293.115 33.4743L255.569 121.801L305.777 159.356M157.735 147.705L228.516 153.275L214.419 166.711M157.735 147.705L164.573 162.788L214.419 166.711M214.419 166.711L141 264.752M141 264.752L305.777 159.356M141 264.752L303.894 183.282L305.777 159.356" stroke="#00FFDA" stroke-width="5"/>
<g filter="url(#filter1_d_7_672)">
<path d="M215.425 131.099C213.587 132.642 211.726 133.337 209.843 133.183C207.972 133.02 206.245 131.994 204.661 130.106L198.613 122.899L201.592 120.4L207.547 127.497C209.48 129.801 211.403 130.151 213.315 128.547C214.246 127.765 214.726 126.893 214.753 125.93C214.771 124.955 214.28 123.873 213.283 122.684L207.328 115.587L210.27 113.119L216.317 120.326C217.901 122.213 218.605 124.098 218.429 125.979C218.265 127.85 217.264 129.557 215.425 131.099ZM221.233 108.744C222.152 107.973 223.165 107.488 224.273 107.29C225.383 107.069 226.476 107.165 227.553 107.577C228.619 107.977 229.58 108.685 230.433 109.703C231.287 110.72 231.823 111.795 232.042 112.927C232.251 114.047 232.155 115.14 231.755 116.207C231.357 117.251 230.698 118.158 229.779 118.93C228.419 120.071 227.023 120.511 225.592 120.25L226.549 121.39L223.809 123.688L212.363 110.047L215.231 107.64L219.257 112.439C219.312 111.035 219.97 109.804 221.233 108.744ZM227.308 116.993C228.044 116.376 228.438 115.627 228.493 114.746C228.549 113.842 228.228 112.974 227.528 112.14C226.829 111.307 226.035 110.845 225.145 110.756C224.258 110.644 223.446 110.897 222.711 111.514C221.976 112.131 221.58 112.892 221.523 113.795C221.469 114.676 221.791 115.534 222.491 116.367C223.19 117.201 223.984 117.673 224.871 117.785C225.76 117.874 226.573 117.61 227.308 116.993ZM242.073 99.9985C242.104 100.035 242.301 100.308 242.666 100.817L235.183 107.096C235.832 107.595 236.557 107.812 237.358 107.746C238.158 107.68 238.933 107.333 239.68 106.706C240.195 106.274 240.587 105.819 240.856 105.343C241.126 104.845 241.295 104.286 241.36 103.667L244.275 104.041C244.238 105.889 243.325 107.564 241.535 109.065C240.42 110.001 239.253 110.615 238.035 110.906C236.807 111.184 235.636 111.133 234.522 110.752C233.409 110.37 232.44 109.689 231.618 108.709C230.805 107.74 230.302 106.68 230.107 105.527C229.915 104.352 230.037 103.216 230.474 102.118C230.912 100.998 231.628 100.022 232.621 99.1886C233.589 98.3761 234.64 97.8491 235.775 97.6076C236.909 97.3661 238.025 97.4525 239.125 97.8666C240.226 98.2583 241.209 98.9689 242.073 99.9985ZM234.46 101.343C233.81 101.888 233.419 102.529 233.286 103.267C233.154 104.005 233.306 104.734 233.742 105.453L238.614 101.365C237.992 100.823 237.306 100.552 236.556 100.555C235.796 100.545 235.097 100.808 234.46 101.343ZM243.636 92.4206C243.578 91.6546 243.735 90.9074 244.105 90.1789C244.488 89.4401 245.059 88.7519 245.819 88.1142L248.04 90.7617C247.701 91.0045 247.476 91.1723 247.366 91.2648C246.545 91.9539 246.097 92.7267 246.022 93.5833C245.937 94.4276 246.28 95.3094 247.051 96.2286L250.969 100.898L248.101 103.305L239.802 93.4139L242.541 91.1153L243.636 92.4206Z" fill="#00FFDA"/>
</g>
<g filter="url(#filter2_d_7_672)">
<path d="M197.662 215.63L199.989 217.708L191.325 227.411L178.794 216.221L187.25 206.751L189.577 208.829L183.695 215.417L186.416 217.847L191.611 212.028L193.866 214.043L188.671 219.861L191.572 222.45L197.662 215.63ZM188.59 203.736L191.084 200.944L204.367 212.804L201.874 215.597L188.59 203.736ZM210.326 196.51C210.361 196.542 210.596 196.784 211.03 197.235L204.524 204.521C205.238 204.923 205.986 205.033 206.769 204.853C207.552 204.673 208.269 204.219 208.919 203.491C209.366 202.989 209.689 202.484 209.887 201.974C210.083 201.442 210.17 200.864 210.146 200.243L213.084 200.195C213.312 202.029 212.649 203.818 211.093 205.56C210.123 206.646 209.056 207.421 207.893 207.883C206.717 208.335 205.551 208.452 204.394 208.234C203.237 208.016 202.181 207.481 201.226 206.628C200.284 205.787 199.633 204.809 199.276 203.696C198.917 202.561 198.875 201.419 199.15 200.27C199.424 199.099 199.992 198.03 200.855 197.063C201.697 196.12 202.662 195.448 203.75 195.046C204.837 194.645 205.955 194.57 207.103 194.823C208.249 195.052 209.323 195.615 210.326 196.51ZM202.984 198.931C202.419 199.564 202.124 200.255 202.098 201.004C202.072 201.753 202.327 202.453 202.863 203.102L207.099 198.358C206.405 197.91 205.687 197.741 204.945 197.851C204.192 197.951 203.538 198.31 202.984 198.931ZM221.065 194.392C220.148 195.418 219.114 196.157 217.961 196.607C216.806 197.035 215.645 197.146 214.478 196.94C213.321 196.722 212.265 196.187 211.311 195.335C210.356 194.482 209.705 193.494 209.358 192.369C209.022 191.232 209.007 190.071 209.314 188.887C209.62 187.679 210.231 186.563 211.147 185.536C212.053 184.522 213.056 183.83 214.157 183.462C215.257 183.071 216.355 183.055 217.452 183.412L216.681 186.617C215.351 186.33 214.264 186.657 213.423 187.6C212.773 188.328 212.473 189.144 212.524 190.048C212.575 190.951 213.013 191.771 213.836 192.506C214.66 193.241 215.523 193.584 216.427 193.532C217.331 193.481 218.107 193.092 218.757 192.364C219.61 191.409 219.813 190.293 219.367 189.015L222.483 187.904C222.937 188.932 223.039 190.019 222.786 191.167C222.544 192.302 221.971 193.377 221.065 194.392ZM231.416 181.574C231.374 182.03 231.225 182.508 230.97 183.01C230.714 183.489 230.389 183.95 229.994 184.391C228.971 185.537 227.885 186.165 226.736 186.275C225.597 186.374 224.46 185.917 223.326 184.904L219.37 181.372L218.043 182.858L215.895 180.939L217.222 179.454L214.877 177.36L217.37 174.567L219.715 176.661L221.857 174.262L224.006 176.18L221.864 178.579L225.784 182.08C226.19 182.442 226.597 182.623 227.005 182.623C227.411 182.6 227.785 182.397 228.126 182.015C228.521 181.574 228.737 181.091 228.775 180.568L231.416 181.574ZM227.303 170.29C227.135 169.54 227.183 168.778 227.445 168.004C227.718 167.218 228.185 166.455 228.845 165.715L231.423 168.017C231.122 168.306 230.924 168.504 230.828 168.611C230.114 169.411 229.781 170.24 229.83 171.099C229.867 171.946 230.332 172.77 231.228 173.569L235.775 177.629L233.281 180.422L223.65 171.822L226.031 169.155L227.303 170.29ZM230.471 164.182L232.965 161.39L242.596 169.989L240.103 172.782L230.471 164.182ZM230.376 161.587C229.917 162.1 229.395 162.385 228.809 162.441C228.223 162.496 227.709 162.327 227.268 161.933C226.826 161.539 226.6 161.047 226.589 160.458C226.579 159.87 226.802 159.319 227.261 158.806C227.719 158.293 228.235 158.003 228.809 157.936C229.383 157.87 229.885 158.028 230.315 158.412C230.78 158.828 231.024 159.335 231.047 159.934C231.058 160.523 230.834 161.074 230.376 161.587ZM249.21 162.871C248.293 163.897 247.259 164.636 246.106 165.086C244.951 165.514 243.791 165.625 242.623 165.419C241.466 165.201 240.41 164.666 239.456 163.814C238.501 162.961 237.85 161.972 237.503 160.848C237.167 159.711 237.152 158.55 237.459 157.365C237.765 156.158 238.376 155.042 239.292 154.015C240.198 153.001 241.201 152.309 242.302 151.941C243.402 151.55 244.5 151.533 245.597 151.891L244.827 155.096C243.496 154.809 242.409 155.136 241.568 156.079C240.918 156.807 240.618 157.623 240.669 158.527C240.72 159.43 241.158 160.25 241.981 160.985C242.805 161.72 243.668 162.062 244.572 162.011C245.476 161.96 246.252 161.571 246.902 160.843C247.755 159.888 247.958 158.771 247.512 157.494L250.628 156.382C251.082 157.411 251.184 158.498 250.931 159.646C250.689 160.781 250.116 161.856 249.21 162.871Z" fill="#00FFDA"/>
</g>
<g filter="url(#filter3_d_7_672)">
<path d="M229.166 137.292L231.281 135.518L232.823 137.357L230.77 139.079L235.99 145.3L233.6 147.305L228.38 141.085L227.109 142.152L225.566 140.313L226.838 139.246L226.529 138.879C225.741 137.939 225.391 136.962 225.479 135.947C225.578 134.925 226.134 133.989 227.145 133.14C227.502 132.84 227.874 132.598 228.259 132.414C228.646 132.212 229.006 132.092 229.341 132.055L230.165 134.313C229.727 134.35 229.323 134.523 228.956 134.832C228.231 135.44 228.202 136.143 228.871 136.94L229.166 137.292ZM243.154 139.497C242.286 140.226 241.354 140.702 240.36 140.928C239.367 141.134 238.406 141.079 237.478 140.761C236.55 140.443 235.743 139.876 235.058 139.058C234.372 138.241 233.953 137.348 233.802 136.379C233.65 135.41 233.766 134.459 234.15 133.528C234.536 132.577 235.164 131.738 236.032 131.009C236.9 130.281 237.83 129.813 238.823 129.607C239.808 129.39 240.764 129.441 241.692 129.758C242.62 130.076 243.427 130.644 244.112 131.461C244.798 132.278 245.217 133.171 245.369 134.14C245.52 135.109 245.408 136.065 245.033 137.007C244.648 137.938 244.022 138.769 243.154 139.497ZM241.508 137.536C242.121 137.022 242.45 136.398 242.495 135.663C242.542 134.91 242.275 134.186 241.692 133.492C241.109 132.797 240.447 132.413 239.706 132.339C238.966 132.246 238.29 132.456 237.677 132.97C237.064 133.485 236.735 134.118 236.688 134.871C236.632 135.614 236.896 136.333 237.478 137.027C238.061 137.722 238.728 138.111 239.477 138.196C240.218 138.27 240.895 138.05 241.508 137.536ZM245.447 125.171C245.399 124.533 245.529 123.91 245.838 123.303C246.157 122.687 246.633 122.114 247.266 121.583L249.117 123.789C248.835 123.991 248.647 124.131 248.555 124.208C247.871 124.782 247.498 125.426 247.435 126.14C247.364 126.844 247.65 127.578 248.293 128.345L251.558 132.236L249.168 134.242L242.252 125.999L244.535 124.083L245.447 125.171Z" fill="#00FFDA"/>
</g>
<g filter="url(#filter4_d_7_672)">
<path d="M255.072 187.822C253.687 188.828 252.215 189.442 250.656 189.664C249.101 189.864 247.614 189.668 246.196 189.076C244.781 188.462 243.585 187.482 242.608 186.135C241.63 184.789 241.073 183.354 240.937 181.832C240.804 180.287 241.078 178.813 241.759 177.409C242.444 175.983 243.485 174.762 244.884 173.747C246.062 172.891 247.274 172.328 248.52 172.056C249.779 171.775 251.014 171.787 252.225 172.094L251.559 175.425C249.869 175.031 248.344 175.327 246.985 176.314C246.143 176.925 245.528 177.658 245.141 178.513C244.744 179.355 244.597 180.242 244.701 181.175C244.818 182.099 245.182 182.981 245.793 183.823C246.404 184.665 247.13 185.284 247.972 185.681C248.827 186.069 249.721 186.211 250.654 186.107C251.577 185.99 252.46 185.626 253.301 185.015C254.661 184.028 255.41 182.664 255.549 180.921L258.923 181.32C258.849 182.579 258.483 183.764 257.826 184.874C257.168 185.984 256.251 186.967 255.072 187.822ZM258.867 168.518C260.486 167.343 262.011 166.829 263.442 166.976C264.864 167.11 266.139 167.954 267.267 169.508L271.596 175.47L268.76 177.529L267.816 176.228C267.951 177.612 267.242 178.869 265.688 179.997C264.885 180.579 264.087 180.951 263.294 181.112C262.514 181.263 261.795 181.211 261.137 180.958C260.478 180.705 259.928 180.274 259.486 179.665C258.781 178.694 258.589 177.667 258.91 176.584C259.244 175.491 260.174 174.39 261.702 173.281L264.111 171.533C263.631 170.872 263.064 170.513 262.409 170.455C261.744 170.384 261.01 170.64 260.208 171.222C259.651 171.627 259.167 172.117 258.754 172.693C258.346 173.247 258.062 173.809 257.902 174.379L255.278 173.052C255.556 172.237 256.01 171.432 256.64 170.639C257.283 169.836 258.026 169.129 258.867 168.518ZM264.965 177.408C265.483 177.032 265.858 176.581 266.09 176.057C266.313 175.519 266.339 174.957 266.169 174.368L265.394 173.3L263.316 174.809C262.073 175.711 261.747 176.57 262.339 177.386C262.621 177.774 262.996 177.977 263.463 177.994C263.933 177.988 264.434 177.793 264.965 177.408ZM270.647 162.309C270.643 161.541 270.851 160.806 271.272 160.106C271.705 159.395 272.323 158.749 273.126 158.166L275.157 160.963C274.801 161.181 274.565 161.333 274.449 161.417C273.581 162.047 273.08 162.787 272.945 163.636C272.801 164.472 273.081 165.376 273.786 166.347L277.368 171.28L274.338 173.48L266.752 163.031L269.646 160.93L270.647 162.309ZM286.292 165.038C285.425 165.668 284.502 166.18 283.522 166.575C282.534 166.956 281.676 167.163 280.949 167.197L280.38 164.289C281.062 164.248 281.804 164.085 282.605 163.8C283.397 163.502 284.111 163.122 284.745 162.662C286.027 161.731 286.437 160.949 285.977 160.314C285.761 160.017 285.431 159.93 284.987 160.054C284.544 160.178 283.926 160.458 283.135 160.894C282.187 161.385 281.373 161.749 280.694 161.984C280.015 162.22 279.314 162.275 278.589 162.148C277.877 162.013 277.235 161.55 276.662 160.76C276.182 160.1 275.947 159.381 275.956 158.603C275.968 157.803 276.234 156.998 276.752 156.186C277.283 155.366 278.047 154.594 279.044 153.87C279.782 153.334 280.575 152.887 281.422 152.529C282.273 152.149 283.041 151.927 283.727 151.864L284.282 154.753C282.987 154.902 281.796 155.372 280.708 156.162C280.061 156.632 279.641 157.075 279.449 157.491C279.257 157.907 279.264 158.258 279.471 158.543C279.706 158.866 280.045 158.966 280.489 158.842C280.932 158.717 281.578 158.436 282.427 157.998C283.385 157.52 284.197 157.168 284.863 156.941C285.519 156.702 286.203 156.65 286.915 156.786C287.627 156.922 288.26 157.372 288.814 158.136C289.284 158.783 289.508 159.5 289.486 160.287C289.465 161.074 289.182 161.883 288.637 162.713C288.097 163.52 287.315 164.296 286.292 165.038Z" fill="#00FFDA"/>
</g>
<g filter="url(#filter5_d_7_672)">
<path d="M232.923 41.4422C294.822 41.4422 345 90.7991 345 151.684C345 212.569 289.975 255.966 228.077 255.966C166.178 255.966 116 206.61 116 145.725C116 106.414 136.918 71.9086 168.403 52.3913" stroke="#00FFDA" stroke-width="5" stroke-linecap="round"/>
<g clip-path="url(#clip1_7_672)">
<path d="M195.891 30.2183C195.096 30.2004 194.327 30.4545 193.754 30.9248C193.181 31.3951 192.851 32.043 192.837 32.7261C192.823 33.4091 193.125 34.0713 193.677 34.5669C194.23 35.0625 194.987 35.3511 195.782 35.369L204.782 35.5717L204.891 30.421L195.891 30.2183ZM207.972 26.6255L207.374 54.9544C207.367 55.2959 207.518 55.627 207.795 55.8748C208.071 56.1226 208.449 56.2669 208.847 56.2758L211.847 56.3434C212.245 56.3524 212.629 56.2253 212.916 55.9901C213.202 55.755 213.367 55.431 213.374 55.0895L213.401 53.8018L216.401 53.8694C219.859 53.9468 223.232 52.9969 225.95 51.1802C228.668 49.3635 230.564 46.7915 231.318 43.8991L240.618 44.1085L240.727 38.9578L231.427 38.7483C230.796 35.8247 229.009 33.1698 226.371 31.2324C223.732 29.2951 220.402 28.1942 216.945 28.1159L213.945 28.0483L213.972 26.7606C213.979 26.4191 213.828 26.088 213.552 25.8402C213.276 25.5924 212.897 25.4481 212.499 25.4392L209.499 25.3716C209.102 25.3626 208.717 25.4897 208.431 25.7249C208.144 25.96 207.979 26.284 207.972 26.6255ZM195.565 45.6704C194.769 45.6525 194.001 45.9066 193.428 46.3769C192.855 46.8472 192.525 47.4952 192.511 48.1782C192.496 48.8612 192.799 49.5234 193.351 50.019C193.903 50.5147 194.661 50.8032 195.456 50.8211L204.456 51.0238L204.565 45.8731L195.565 45.6704Z" fill="#00FFDA"/>
</g>
</g>
</g>
</g>
<defs>
<filter id="filter0_d_7_672" x="0" y="0" width="436" height="934" filterUnits="userSpaceOnUse" color-interpolation-filters="sRGB">
<feFlood flood-opacity="0" result="BackgroundImageFix"/>
<feColorMatrix in="SourceAlpha" type="matrix" values="0 0 0 0 0 0 0 0 0 0 0 0 0 0 0 0 0 0 127 0" result="hardAlpha"/>
<feOffset dy="4"/>
<feGaussianBlur stdDeviation="2"/>
<feComposite in2="hardAlpha" operator="out"/>
<feColorMatrix type="matrix" values="0 0 0 0 0 0 0 0 0 0 0 0 0 0 0 0 0 0 0.25 0"/>
<feBlend mode="normal" in2="BackgroundImageFix" result="effect1_dropShadow_7_672"/>
<feBlend mode="normal" in="SourceGraphic" in2="effect1_dropShadow_7_672" result="shape"/>
</filter>
<filter id="filter1_d_7_672" x="193.965" y="84.5107" width="64.4616" height="60.4789" filterUnits="userSpaceOnUse" color-interpolation-filters="sRGB">
<feFlood flood-opacity="0" result="BackgroundImageFix"/>
<feColorMatrix in="SourceAlpha" type="matrix" values="0 0 0 0 0 0 0 0 0 0 0 0 0 0 0 0 0 0 127 0" result="hardAlpha"/>
<feOffset dy="5"/>
<feGaussianBlur stdDeviation="2"/>
<feComposite in2="hardAlpha" operator="out"/>
<feColorMatrix type="matrix" values="0 0 0 0 0.105882 0 0 0 0 0.584314 0 0 0 0 0.513726 0 0 0 1 0"/>
<feBlend mode="normal" in2="BackgroundImageFix" result="effect1_dropShadow_7_672"/>
<feBlend mode="normal" in="SourceGraphic" in2="effect1_dropShadow_7_672" result="shape"/>
</filter>
<filter id="filter2_d_7_672" x="173.236" y="145.848" width="83.8259" height="90.69" filterUnits="userSpaceOnUse" color-interpolation-filters="sRGB">
<feFlood flood-opacity="0" result="BackgroundImageFix"/>
<feColorMatrix in="SourceAlpha" type="matrix" values="0 0 0 0 0 0 0 0 0 0 0 0 0 0 0 0 0 0 127 0" result="hardAlpha"/>
<feOffset dy="5"/>
<feGaussianBlur stdDeviation="2"/>
<feComposite in2="hardAlpha" operator="out"/>
<feColorMatrix type="matrix" values="0 0 0 0 0.105882 0 0 0 0 0.584314 0 0 0 0 0.513726 0 0 0 1 0"/>
<feBlend mode="normal" in2="BackgroundImageFix" result="effect1_dropShadow_7_672"/>
<feBlend mode="normal" in="SourceGraphic" in2="effect1_dropShadow_7_672" result="shape"/>
</filter>
<filter id="filter3_d_7_672" x="218.686" y="118.457" width="39.7019" height="39.0375" filterUnits="userSpaceOnUse" color-interpolation-filters="sRGB">
<feFlood flood-opacity="0" result="BackgroundImageFix"/>
<feColorMatrix in="SourceAlpha" type="matrix" values="0 0 0 0 0 0 0 0 0 0 0 0 0 0 0 0 0 0 127 0" result="hardAlpha"/>
<feOffset dy="5"/>
<feGaussianBlur stdDeviation="2"/>
<feComposite in2="hardAlpha" operator="out"/>
<feColorMatrix type="matrix" values="0 0 0 0 0.105882 0 0 0 0 0.584314 0 0 0 0 0.513726 0 0 0 1 0"/>
<feBlend mode="normal" in2="BackgroundImageFix" result="effect1_dropShadow_7_672"/>
<feBlend mode="normal" in="SourceGraphic" in2="effect1_dropShadow_7_672" result="shape"/>
</filter>
<filter id="filter4_d_7_672" x="233.503" y="147.473" width="61.7783" height="54.6926" filterUnits="userSpaceOnUse" color-interpolation-filters="sRGB">
<feFlood flood-opacity="0" result="BackgroundImageFix"/>
<feColorMatrix in="SourceAlpha" type="matrix" values="0 0 0 0 0 0 0 0 0 0 0 0 0 0 0 0 0 0 127 0" result="hardAlpha"/>
<feOffset dy="5"/>
<feGaussianBlur stdDeviation="2"/>
<feComposite in2="hardAlpha" operator="out"/>
<feColorMatrix type="matrix" values="0 0 0 0 0.105882 0 0 0 0 0.584314 0 0 0 0 0.513726 0 0 0 1 0"/>
<feBlend mode="normal" in2="BackgroundImageFix" result="effect1_dropShadow_7_672"/>
<feBlend mode="normal" in="SourceGraphic" in2="effect1_dropShadow_7_672" result="shape"/>
</filter>
<filter id="filter5_d_7_672" x="109.5" y="21.7151" width="242" height="244.751" filterUnits="userSpaceOnUse" color-interpolation-filters="sRGB">
<feFlood flood-opacity="0" result="BackgroundImageFix"/>
<feColorMatrix in="SourceAlpha" type="matrix" values="0 0 0 0 0 0 0 0 0 0 0 0 0 0 0 0 0 0 127 0" result="hardAlpha"/>
<feOffset dy="4"/>
<feGaussianBlur stdDeviation="2"/>
<feComposite in2="hardAlpha" operator="out"/>
<feColorMatrix type="matrix" values="0 0 0 0 0 0 0 0 0 0 0 0 0 0 0 0 0 0 1 0"/>
<feBlend mode="normal" in2="BackgroundImageFix" result="effect1_dropShadow_7_672"/>
<feBlend mode="normal" in="SourceGraphic" in2="effect1_dropShadow_7_672" result="shape"/>
</filter>
<linearGradient id="paint0_linear_7_672" x1="134.215" y1="-28.6206" x2="264.788" y2="345.582" gradientUnits="userSpaceOnUse">
<stop stop-color="#05CAAD"/>
<stop offset="1" stop-color="#05CAAD" stop-opacity="0"/>
</linearGradient>
<clipPath id="clip0_7_672">
<rect x="4" width="428" height="926" rx="74" fill="white"/>
</clipPath>
<clipPath id="clip1_7_672">
<rect width="37.1032" height="52.848" fill="white" transform="matrix(0.0210987 -0.999777 0.999746 0.0225165 183.165 58.8101)"/>
</clipPath>
</defs>
</svg>