<svg width="428" height="926" viewBox="0 0 428 926" fill="none" xmlns="http://www.w3.org/2000/svg">
<g clip-path="url(#clip0_14_3)">
<rect width="428" height="926" rx="74" fill="#182724"/>
<rect x="47" y="497.259" width="338" height="50" rx="5" fill="white"/>
<path d="M71.6041 529.499C70.1775 529.499 68.8841 529.192 67.7241 528.579C66.5775 527.952 65.6708 527.092 65.0041 525.999C64.3508 524.892 64.0241 523.646 64.0241 522.259C64.0241 520.872 64.3508 519.632 65.0041 518.539C65.6708 517.432 66.5775 516.572 67.7241 515.959C68.8841 515.332 70.1841 515.019 71.6241 515.019C72.8375 515.019 73.9308 515.232 74.9041 515.659C75.8908 516.086 76.7175 516.699 77.3841 517.499L75.3041 519.419C74.3575 518.326 73.1841 517.779 71.7841 517.779C70.9175 517.779 70.1441 517.972 69.4641 518.359C68.7841 518.732 68.2508 519.259 67.8641 519.939C67.4908 520.619 67.3041 521.392 67.3041 522.259C67.3041 523.126 67.4908 523.899 67.8641 524.579C68.2508 525.259 68.7841 525.792 69.4641 526.179C70.1441 526.552 70.9175 526.739 71.7841 526.739C73.1841 526.739 74.3575 526.186 75.3041 525.079L77.3841 526.999C76.7175 527.812 75.8908 528.432 74.9041 528.859C73.9175 529.286 72.8175 529.499 71.6041 529.499ZM84.101 529.419C82.9677 529.419 81.9477 529.186 81.041 528.719C80.1477 528.239 79.4477 527.579 78.941 526.739C78.4343 525.899 78.181 524.946 78.181 523.879C78.181 522.812 78.4343 521.859 78.941 521.019C79.4477 520.179 80.1477 519.526 81.041 519.059C81.9477 518.579 82.9677 518.339 84.101 518.339C85.2343 518.339 86.2477 518.579 87.141 519.059C88.0343 519.526 88.7343 520.179 89.241 521.019C89.7477 521.859 90.001 522.812 90.001 523.879C90.001 524.946 89.7477 525.899 89.241 526.739C88.7343 527.579 88.0343 528.239 87.141 528.719C86.2477 529.186 85.2343 529.419 84.101 529.419ZM84.101 526.859C84.901 526.859 85.5543 526.592 86.061 526.059C86.581 525.512 86.841 524.786 86.841 523.879C86.841 522.972 86.581 522.252 86.061 521.719C85.5543 521.172 84.901 520.899 84.101 520.899C83.301 520.899 82.641 521.172 82.121 521.719C81.601 522.252 81.341 522.972 81.341 523.879C81.341 524.786 81.601 525.512 82.121 526.059C82.641 526.592 83.301 526.859 84.101 526.859ZM102.926 518.499V529.259H99.9665V527.979C99.5532 528.446 99.0598 528.806 98.4865 529.059C97.9132 529.299 97.2932 529.419 96.6265 529.419C95.2132 529.419 94.0932 529.012 93.2665 528.199C92.4398 527.386 92.0265 526.179 92.0265 524.579V518.499H95.1465V524.119C95.1465 525.852 95.8732 526.719 97.3265 526.719C98.0732 526.719 98.6732 526.479 99.1265 525.999C99.5798 525.506 99.8065 524.779 99.8065 523.819V518.499H102.926ZM112.357 518.339C113.69 518.339 114.764 518.739 115.577 519.539C116.404 520.339 116.817 521.526 116.817 523.099V529.259H113.697V523.579C113.697 522.726 113.51 522.092 113.137 521.679C112.764 521.252 112.224 521.039 111.517 521.039C110.73 521.039 110.104 521.286 109.637 521.779C109.17 522.259 108.937 522.979 108.937 523.939V529.259H105.817V518.499H108.797V519.759C109.21 519.306 109.724 518.959 110.337 518.719C110.95 518.466 111.624 518.339 112.357 518.339ZM126.585 528.739C126.278 528.966 125.898 529.139 125.445 529.259C125.005 529.366 124.538 529.419 124.045 529.419C122.765 529.419 121.772 529.092 121.065 528.439C120.372 527.786 120.025 526.826 120.025 525.559V521.139H118.365V518.739H120.025V516.119H123.145V518.739H125.825V521.139H123.145V525.519C123.145 525.972 123.258 526.326 123.485 526.579C123.725 526.819 124.058 526.939 124.485 526.939C124.978 526.939 125.398 526.806 125.745 526.539L126.585 528.739ZM131.316 519.919C131.69 519.399 132.19 519.006 132.816 518.739C133.456 518.472 134.19 518.339 135.016 518.339V521.219C134.67 521.192 134.436 521.179 134.316 521.179C133.423 521.179 132.723 521.432 132.216 521.939C131.71 522.432 131.456 523.179 131.456 524.179V529.259H128.336V518.499H131.316V519.919ZM147.923 518.499L143.063 529.919C142.569 531.159 141.956 532.032 141.223 532.539C140.503 533.046 139.629 533.299 138.603 533.299C138.043 533.299 137.489 533.212 136.943 533.039C136.396 532.866 135.949 532.626 135.603 532.319L136.743 530.099C136.983 530.312 137.256 530.479 137.563 530.599C137.883 530.719 138.196 530.779 138.503 530.779C138.929 530.779 139.276 530.672 139.543 530.459C139.809 530.259 140.049 529.919 140.263 529.439L140.303 529.339L135.643 518.499H138.863L141.883 525.799L144.923 518.499H147.923Z" fill="#C4C4C4"/>
<rect x="47" y="417.259" width="338" height="50" rx="5" fill="white"/>
<path d="M70.97 435.259C72.21 435.259 73.2833 435.466 74.19 435.879C75.11 436.292 75.8167 436.879 76.31 437.639C76.8033 438.399 77.05 439.299 77.05 440.339C77.05 441.366 76.8033 442.266 76.31 443.039C75.8167 443.799 75.11 444.386 74.19 444.799C73.2833 445.199 72.21 445.399 70.97 445.399H68.15V449.259H64.91V435.259H70.97ZM70.79 442.759C71.7633 442.759 72.5033 442.552 73.01 442.139C73.5167 441.712 73.77 441.112 73.77 440.339C73.77 439.552 73.5167 438.952 73.01 438.539C72.5033 438.112 71.7633 437.899 70.79 437.899H68.15V442.759H70.79ZM85.8784 438.339C87.2118 438.339 88.2851 438.739 89.0984 439.539C89.9251 440.339 90.3384 441.526 90.3384 443.099V449.259H87.2184V443.579C87.2184 442.726 87.0318 442.092 86.6584 441.679C86.2851 441.252 85.7451 441.039 85.0384 441.039C84.2518 441.039 83.6251 441.286 83.1584 441.779C82.6918 442.259 82.4584 442.979 82.4584 443.939V449.259H79.3384V434.419H82.4584V439.619C82.8718 439.206 83.3718 438.892 83.9584 438.679C84.5451 438.452 85.1851 438.339 85.8784 438.339ZM98.4038 449.419C97.2704 449.419 96.2504 449.186 95.3438 448.719C94.4504 448.239 93.7504 447.579 93.2438 446.739C92.7371 445.899 92.4838 444.946 92.4838 443.879C92.4838 442.812 92.7371 441.859 93.2438 441.019C93.7504 440.179 94.4504 439.526 95.3438 439.059C96.2504 438.579 97.2704 438.339 98.4038 438.339C99.5371 438.339 100.55 438.579 101.444 439.059C102.337 439.526 103.037 440.179 103.544 441.019C104.05 441.859 104.304 442.812 104.304 443.879C104.304 444.946 104.05 445.899 103.544 446.739C103.037 447.579 102.337 448.239 101.444 448.719C100.55 449.186 99.5371 449.419 98.4038 449.419ZM98.4038 446.859C99.2038 446.859 99.8571 446.592 100.364 446.059C100.884 445.512 101.144 444.786 101.144 443.879C101.144 442.972 100.884 442.252 100.364 441.719C99.8571 441.172 99.2038 440.899 98.4038 440.899C97.6038 440.899 96.9438 441.172 96.4238 441.719C95.9038 442.252 95.6438 442.972 95.6438 443.879C95.6438 444.786 95.9038 445.512 96.4238 446.059C96.9438 446.592 97.6038 446.859 98.4038 446.859ZM112.929 438.339C114.263 438.339 115.336 438.739 116.149 439.539C116.976 440.339 117.389 441.526 117.389 443.099V449.259H114.269V443.579C114.269 442.726 114.083 442.092 113.709 441.679C113.336 441.252 112.796 441.039 112.089 441.039C111.303 441.039 110.676 441.286 110.209 441.779C109.743 442.259 109.509 442.979 109.509 443.939V449.259H106.389V438.499H109.369V439.759C109.783 439.306 110.296 438.959 110.909 438.719C111.523 438.466 112.196 438.339 112.929 438.339ZM130.875 443.919C130.875 443.959 130.855 444.239 130.815 444.759H122.675C122.821 445.426 123.168 445.952 123.715 446.339C124.261 446.726 124.941 446.919 125.755 446.919C126.315 446.919 126.808 446.839 127.235 446.679C127.675 446.506 128.081 446.239 128.455 445.879L130.115 447.679C129.101 448.839 127.621 449.419 125.675 449.419C124.461 449.419 123.388 449.186 122.455 448.719C121.521 448.239 120.801 447.579 120.295 446.739C119.788 445.899 119.535 444.946 119.535 443.879C119.535 442.826 119.781 441.879 120.275 441.039C120.781 440.186 121.468 439.526 122.335 439.059C123.215 438.579 124.195 438.339 125.275 438.339C126.328 438.339 127.281 438.566 128.135 439.019C128.988 439.472 129.655 440.126 130.135 440.979C130.628 441.819 130.875 442.799 130.875 443.919ZM125.295 440.699C124.588 440.699 123.995 440.899 123.515 441.299C123.035 441.699 122.741 442.246 122.635 442.939H127.935C127.828 442.259 127.535 441.719 127.055 441.319C126.575 440.906 125.988 440.699 125.295 440.699ZM145.156 438.339C146.489 438.339 147.562 438.739 148.376 439.539C149.202 440.339 149.616 441.526 149.616 443.099V449.259H146.496V443.579C146.496 442.726 146.309 442.092 145.936 441.679C145.562 441.252 145.022 441.039 144.316 441.039C143.529 441.039 142.902 441.286 142.436 441.779C141.969 442.259 141.736 442.979 141.736 443.939V449.259H138.616V438.499H141.596V439.759C142.009 439.306 142.522 438.959 143.136 438.719C143.749 438.466 144.422 438.339 145.156 438.339ZM163.284 438.499V449.259H160.324V447.979C159.911 448.446 159.417 448.806 158.844 449.059C158.271 449.299 157.651 449.419 156.984 449.419C155.571 449.419 154.451 449.012 153.624 448.199C152.797 447.386 152.384 446.179 152.384 444.579V438.499H155.504V444.119C155.504 445.852 156.231 446.719 157.684 446.719C158.431 446.719 159.031 446.479 159.484 445.999C159.937 445.506 160.164 444.779 160.164 443.819V438.499H163.284ZM179.954 438.339C181.301 438.339 182.368 438.739 183.154 439.539C183.954 440.326 184.354 441.512 184.354 443.099V449.259H181.234V443.579C181.234 442.726 181.054 442.092 180.694 441.679C180.348 441.252 179.848 441.039 179.194 441.039C178.461 441.039 177.881 441.279 177.454 441.759C177.028 442.226 176.814 442.926 176.814 443.859V449.259H173.694V443.579C173.694 441.886 173.014 441.039 171.654 441.039C170.934 441.039 170.361 441.279 169.934 441.759C169.508 442.226 169.294 442.926 169.294 443.859V449.259H166.174V438.499H169.154V439.739C169.554 439.286 170.041 438.939 170.614 438.699C171.201 438.459 171.841 438.339 172.534 438.339C173.294 438.339 173.981 438.492 174.594 438.799C175.208 439.092 175.701 439.526 176.074 440.099C176.514 439.539 177.068 439.106 177.734 438.799C178.414 438.492 179.154 438.339 179.954 438.339ZM193.511 438.339C194.511 438.339 195.418 438.572 196.231 439.039C197.058 439.492 197.704 440.139 198.171 440.979C198.638 441.806 198.871 442.772 198.871 443.879C198.871 444.986 198.638 445.959 198.171 446.799C197.704 447.626 197.058 448.272 196.231 448.739C195.418 449.192 194.511 449.419 193.511 449.419C192.031 449.419 190.904 448.952 190.131 448.019V449.259H187.151V434.419H190.271V439.639C191.058 438.772 192.138 438.339 193.511 438.339ZM192.971 446.859C193.771 446.859 194.424 446.592 194.931 446.059C195.451 445.512 195.711 444.786 195.711 443.879C195.711 442.972 195.451 442.252 194.931 441.719C194.424 441.172 193.771 440.899 192.971 440.899C192.171 440.899 191.511 441.172 190.991 441.719C190.484 442.252 190.231 442.972 190.231 443.879C190.231 444.786 190.484 445.512 190.991 446.059C191.511 446.592 192.171 446.859 192.971 446.859ZM211.5 443.919C211.5 443.959 211.48 444.239 211.44 444.759H203.3C203.446 445.426 203.793 445.952 204.34 446.339C204.886 446.726 205.566 446.919 206.38 446.919C206.94 446.919 207.433 446.839 207.86 446.679C208.3 446.506 208.706 446.239 209.08 445.879L210.74 447.679C209.726 448.839 208.246 449.419 206.3 449.419C205.086 449.419 204.013 449.186 203.08 448.719C202.146 448.239 201.426 447.579 200.92 446.739C200.413 445.899 200.16 444.946 200.16 443.879C200.16 442.826 200.406 441.879 200.9 441.039C201.406 440.186 202.093 439.526 202.96 439.059C203.84 438.579 204.82 438.339 205.9 438.339C206.953 438.339 207.906 438.566 208.76 439.019C209.613 439.472 210.28 440.126 210.76 440.979C211.253 441.819 211.5 442.799 211.5 443.919ZM205.92 440.699C205.213 440.699 204.62 440.899 204.14 441.299C203.66 441.699 203.366 442.246 203.26 442.939H208.56C208.453 442.259 208.16 441.719 207.68 441.319C207.2 440.906 206.613 440.699 205.92 440.699ZM216.557 439.919C216.93 439.399 217.43 439.006 218.057 438.739C218.697 438.472 219.43 438.339 220.257 438.339V441.219C219.91 441.192 219.677 441.179 219.557 441.179C218.663 441.179 217.963 441.432 217.457 441.939C216.95 442.432 216.697 443.179 216.697 444.179V449.259H213.577V438.499H216.557V439.919Z" fill="#C4C4C4"/>
<path d="M18.0282 63.3484C20.9632 70.0159 23.6244 84.102 25.527 88.4888M25.527 88.4888C42.8815 80.2807 65.4025 70.209 92.0635 61.8629C118.725 53.5169 124.317 51.3751 133.941 50.6591C156.937 47.5002 158.664 47.6549 163.62 47.6075M25.527 88.4888L47.7172 129.442M163.62 47.6075C166.161 47.2079 292.802 -16.4606 292.802 -16.4606L392.056 -67.1639L416.75 -75.7807M163.62 47.6075C158.635 65.4922 146.5 79.3902 130.252 98.4948M501.524 -59.0998L480.546 -73.6933L460.995 -79.0454M317.173 29.5755L333.234 9.84929L374.509 -1.14434L425.027 25.5416L372.207 92.6691L326.253 151.07M317.173 29.5755L297.899 36.3007L222.01 62.7815C216.009 65.1506 185.937 81.0785 174.802 85.0976C163.667 89.1166 158.205 92.108 128.425 101.28M317.173 29.5755L247.078 120.073M128.425 101.28L47.7172 129.442M128.425 101.28L130.252 98.4948M47.7172 129.442C56.2604 131.331 92.5379 145.942 92.5379 145.942M47.7172 129.442L-56.5592 268.091M92.5379 145.942L130.252 98.4948M92.5379 145.942L124.08 158.31M195.707 186.396L275.546 215.513M195.707 186.396L247.078 120.073M195.707 186.396L145.566 250.154M195.707 186.396L144.123 166.169M275.546 215.513L326.253 151.07M275.546 215.513L389.404 256.132M275.546 215.513L223.861 280.783M247.078 120.073L326.253 151.07M326.253 151.07L405.269 177.14L389.404 256.132M389.404 256.132L322.025 320.062L223.861 280.783M223.861 280.783L145.566 250.154M223.861 280.783L175.298 349.834M145.566 250.154L92.4655 232.647M145.566 250.154L104.155 318.657M92.4655 232.647L144.123 166.169M92.4655 232.647L78.2591 227.378M144.123 166.169L124.08 158.31M124.08 158.31L78.2591 227.378M78.2591 227.378L32.6527 292.963M32.6527 292.963L104.155 318.657M32.6527 292.963L-56.5592 268.091M104.155 318.657L175.298 349.834M175.298 349.834L195.715 355.858M-56.5592 268.091L-100.281 319.869L-172.083 297.688L-125.145 236.509M14.3589 62.1939C59.5764 45.8685 81.827 38.1539 117.954 26.0456L283.599 -62.9199L381.482 -120.449L427.092 -101.303M427.092 -101.303L416.75 -75.7807M427.092 -101.303L441.444 -84.3974L416.75 -75.7807M2.56676 143.049L-168.627 173.28L-192.974 207.585L-125.145 236.509M-100.023 247.222L-125.145 236.509" stroke="url(#paint0_linear_14_3)" stroke-opacity="0.3" stroke-width="5"/>
<path d="M34.8949 289.983L124.126 159.015L48.5686 129.642L26.94 88.3255L55.2304 74.8757" stroke="#05CAAD" stroke-opacity="0.2" stroke-width="2"/>
<rect x="47" y="97.2589" width="338" height="50" rx="5" fill="white"/>
<path d="M68.2223 117.859V121.559H74.7023V124.159H68.2223V129.259H64.9823V115.259H75.5623V117.859H68.2223ZM77.3404 118.499H80.4604V129.259H77.3404V118.499ZM78.9004 116.999C78.3271 116.999 77.8604 116.832 77.5004 116.499C77.1404 116.166 76.9604 115.752 76.9604 115.259C76.9604 114.766 77.1404 114.352 77.5004 114.019C77.8604 113.686 78.3271 113.519 78.9004 113.519C79.4737 113.519 79.9404 113.679 80.3004 113.999C80.6604 114.319 80.8404 114.719 80.8404 115.199C80.8404 115.719 80.6604 116.152 80.3004 116.499C79.9404 116.832 79.4737 116.999 78.9004 116.999ZM86.336 119.919C86.7093 119.399 87.2093 119.006 87.836 118.739C88.476 118.472 89.2093 118.339 90.036 118.339V121.219C89.6893 121.192 89.456 121.179 89.336 121.179C88.4427 121.179 87.7427 121.432 87.236 121.939C86.7293 122.432 86.476 123.179 86.476 124.179V129.259H83.356V118.499H86.336V119.919ZM95.5502 129.419C94.6569 129.419 93.7836 129.312 92.9302 129.099C92.0769 128.872 91.3969 128.592 90.8902 128.259L91.9302 126.019C92.4102 126.326 92.9902 126.579 93.6702 126.779C94.3502 126.966 95.0169 127.059 95.6702 127.059C96.9902 127.059 97.6502 126.732 97.6502 126.079C97.6502 125.772 97.4702 125.552 97.1102 125.419C96.7502 125.286 96.1969 125.172 95.4502 125.079C94.5702 124.946 93.8436 124.792 93.2702 124.619C92.6969 124.446 92.1969 124.139 91.7702 123.699C91.3569 123.259 91.1502 122.632 91.1502 121.819C91.1502 121.139 91.3436 120.539 91.7302 120.019C92.1302 119.486 92.7036 119.072 93.4502 118.779C94.2102 118.486 95.1036 118.339 96.1302 118.339C96.8902 118.339 97.6436 118.426 98.3902 118.599C99.1502 118.759 99.7769 118.986 100.27 119.279L99.2302 121.499C98.2836 120.966 97.2502 120.699 96.1302 120.699C95.4636 120.699 94.9636 120.792 94.6302 120.979C94.2969 121.166 94.1302 121.406 94.1302 121.699C94.1302 122.032 94.3102 122.266 94.6702 122.399C95.0302 122.532 95.6036 122.659 96.3902 122.779C97.2702 122.926 97.9902 123.086 98.5502 123.259C99.1102 123.419 99.5969 123.719 100.01 124.159C100.424 124.599 100.63 125.212 100.63 125.999C100.63 126.666 100.43 127.259 100.03 127.779C99.6302 128.299 99.0436 128.706 98.2702 128.999C97.5102 129.279 96.6036 129.419 95.5502 129.419ZM109.495 128.739C109.189 128.966 108.809 129.139 108.355 129.259C107.915 129.366 107.449 129.419 106.955 129.419C105.675 129.419 104.682 129.092 103.975 128.439C103.282 127.786 102.935 126.826 102.935 125.559V121.139H101.275V118.739H102.935V116.119H106.055V118.739H108.735V121.139H106.055V125.519C106.055 125.972 106.169 126.326 106.395 126.579C106.635 126.819 106.969 126.939 107.395 126.939C107.889 126.939 108.309 126.806 108.655 126.539L109.495 128.739ZM129.971 115.259V129.259H127.311L120.331 120.759V129.259H117.131V115.259H119.811L126.771 123.759V115.259H129.971ZM137.403 118.339C139.07 118.339 140.35 118.739 141.243 119.539C142.136 120.326 142.583 121.519 142.583 123.119V129.259H139.663V127.919C139.076 128.919 137.983 129.419 136.383 129.419C135.556 129.419 134.836 129.279 134.223 128.999C133.623 128.719 133.163 128.332 132.843 127.839C132.523 127.346 132.363 126.786 132.363 126.159C132.363 125.159 132.736 124.372 133.483 123.799C134.243 123.226 135.41 122.939 136.983 122.939H139.463C139.463 122.259 139.256 121.739 138.843 121.379C138.43 121.006 137.81 120.819 136.983 120.819C136.41 120.819 135.843 120.912 135.283 121.099C134.736 121.272 134.27 121.512 133.883 121.819L132.763 119.639C133.35 119.226 134.05 118.906 134.863 118.679C135.69 118.452 136.536 118.339 137.403 118.339ZM137.163 127.319C137.696 127.319 138.17 127.199 138.583 126.959C138.996 126.706 139.29 126.339 139.463 125.859V124.759H137.323C136.043 124.759 135.403 125.179 135.403 126.019C135.403 126.419 135.556 126.739 135.863 126.979C136.183 127.206 136.616 127.319 137.163 127.319ZM159.187 118.339C160.533 118.339 161.6 118.739 162.387 119.539C163.187 120.326 163.587 121.512 163.587 123.099V129.259H160.467V123.579C160.467 122.726 160.287 122.092 159.927 121.679C159.58 121.252 159.08 121.039 158.427 121.039C157.693 121.039 157.113 121.279 156.687 121.759C156.26 122.226 156.047 122.926 156.047 123.859V129.259H152.927V123.579C152.927 121.886 152.247 121.039 150.887 121.039C150.167 121.039 149.593 121.279 149.167 121.759C148.74 122.226 148.527 122.926 148.527 123.859V129.259H145.407V118.499H148.387V119.739C148.787 119.286 149.273 118.939 149.847 118.699C150.433 118.459 151.073 118.339 151.767 118.339C152.527 118.339 153.213 118.492 153.827 118.799C154.44 119.092 154.933 119.526 155.307 120.099C155.747 119.539 156.3 119.106 156.967 118.799C157.647 118.492 158.387 118.339 159.187 118.339ZM177.041 123.919C177.041 123.959 177.021 124.239 176.981 124.759H168.841C168.987 125.426 169.334 125.952 169.881 126.339C170.427 126.726 171.107 126.919 171.921 126.919C172.481 126.919 172.974 126.839 173.401 126.679C173.841 126.506 174.247 126.239 174.621 125.879L176.281 127.679C175.267 128.839 173.787 129.419 171.841 129.419C170.627 129.419 169.554 129.186 168.621 128.719C167.687 128.239 166.967 127.579 166.461 126.739C165.954 125.899 165.701 124.946 165.701 123.879C165.701 122.826 165.947 121.879 166.441 121.039C166.947 120.186 167.634 119.526 168.501 119.059C169.381 118.579 170.361 118.339 171.441 118.339C172.494 118.339 173.447 118.566 174.301 119.019C175.154 119.472 175.821 120.126 176.301 120.979C176.794 121.819 177.041 122.799 177.041 123.919ZM171.461 120.699C170.754 120.699 170.161 120.899 169.681 121.299C169.201 121.699 168.907 122.246 168.801 122.939H174.101C173.994 122.259 173.701 121.719 173.221 121.319C172.741 120.906 172.154 120.699 171.461 120.699Z" fill="#C4C4C4"/>
<rect x="47" y="177" width="338" height="50" rx="5" fill="white"/>
<path d="M64.8006 195H68.0406V206.36H75.0606V209H64.8006V195ZM81.1081 198.08C82.7748 198.08 84.0548 198.48 84.9481 199.28C85.8415 200.067 86.2881 201.26 86.2881 202.86V209H83.3681V207.66C82.7815 208.66 81.6881 209.16 80.0881 209.16C79.2615 209.16 78.5415 209.02 77.9281 208.74C77.3281 208.46 76.8681 208.073 76.5481 207.58C76.2281 207.087 76.0681 206.527 76.0681 205.9C76.0681 204.9 76.4415 204.113 77.1881 203.54C77.9481 202.967 79.1148 202.68 80.6881 202.68H83.1681C83.1681 202 82.9615 201.48 82.5481 201.12C82.1348 200.747 81.5148 200.56 80.6881 200.56C80.1148 200.56 79.5481 200.653 78.9881 200.84C78.4415 201.013 77.9748 201.253 77.5881 201.56L76.4681 199.38C77.0548 198.967 77.7548 198.647 78.5681 198.42C79.3948 198.193 80.2415 198.08 81.1081 198.08ZM80.8681 207.06C81.4015 207.06 81.8748 206.94 82.2881 206.7C82.7015 206.447 82.9948 206.08 83.1681 205.6V204.5H81.0281C79.7481 204.5 79.1081 204.92 79.1081 205.76C79.1081 206.16 79.2615 206.48 79.5681 206.72C79.8881 206.947 80.3215 207.06 80.8681 207.06ZM92.7319 209.16C91.8385 209.16 90.9652 209.053 90.1119 208.84C89.2585 208.613 88.5785 208.333 88.0719 208L89.1119 205.76C89.5919 206.067 90.1719 206.32 90.8519 206.52C91.5319 206.707 92.1985 206.8 92.8519 206.8C94.1719 206.8 94.8319 206.473 94.8319 205.82C94.8319 205.513 94.6519 205.293 94.2919 205.16C93.9319 205.027 93.3785 204.913 92.6319 204.82C91.7519 204.687 91.0252 204.533 90.4519 204.36C89.8785 204.187 89.3785 203.88 88.9519 203.44C88.5385 203 88.3319 202.373 88.3319 201.56C88.3319 200.88 88.5252 200.28 88.9119 199.76C89.3119 199.227 89.8852 198.813 90.6319 198.52C91.3919 198.227 92.2852 198.08 93.3119 198.08C94.0719 198.08 94.8252 198.167 95.5719 198.34C96.3319 198.5 96.9585 198.727 97.4519 199.02L96.4119 201.24C95.4652 200.707 94.4319 200.44 93.3119 200.44C92.6452 200.44 92.1452 200.533 91.8119 200.72C91.4785 200.907 91.3119 201.147 91.3119 201.44C91.3119 201.773 91.4919 202.007 91.8519 202.14C92.2119 202.273 92.7852 202.4 93.5719 202.52C94.4519 202.667 95.1719 202.827 95.7319 203C96.2919 203.16 96.7785 203.46 97.1919 203.9C97.6052 204.34 97.8119 204.953 97.8119 205.74C97.8119 206.407 97.6119 207 97.2119 207.52C96.8119 208.04 96.2252 208.447 95.4519 208.74C94.6919 209.02 93.7852 209.16 92.7319 209.16ZM106.677 208.48C106.37 208.707 105.99 208.88 105.537 209C105.097 209.107 104.63 209.16 104.137 209.16C102.857 209.16 101.864 208.833 101.157 208.18C100.464 207.527 100.117 206.567 100.117 205.3V200.88H98.4569V198.48H100.117V195.86H103.237V198.48H105.917V200.88H103.237V205.26C103.237 205.713 103.35 206.067 103.577 206.32C103.817 206.56 104.15 206.68 104.577 206.68C105.07 206.68 105.49 206.547 105.837 206.28L106.677 208.48ZM127.152 195V209H124.492L117.512 200.5V209H114.312V195H116.992L123.952 203.5V195H127.152ZM134.585 198.08C136.251 198.08 137.531 198.48 138.425 199.28C139.318 200.067 139.765 201.26 139.765 202.86V209H136.845V207.66C136.258 208.66 135.165 209.16 133.565 209.16C132.738 209.16 132.018 209.02 131.405 208.74C130.805 208.46 130.345 208.073 130.025 207.58C129.705 207.087 129.545 206.527 129.545 205.9C129.545 204.9 129.918 204.113 130.665 203.54C131.425 202.967 132.591 202.68 134.165 202.68H136.645C136.645 202 136.438 201.48 136.025 201.12C135.611 200.747 134.991 200.56 134.165 200.56C133.591 200.56 133.025 200.653 132.465 200.84C131.918 201.013 131.451 201.253 131.065 201.56L129.945 199.38C130.531 198.967 131.231 198.647 132.045 198.42C132.871 198.193 133.718 198.08 134.585 198.08ZM134.345 207.06C134.878 207.06 135.351 206.94 135.765 206.7C136.178 206.447 136.471 206.08 136.645 205.6V204.5H134.505C133.225 204.5 132.585 204.92 132.585 205.76C132.585 206.16 132.738 206.48 133.045 206.72C133.365 206.947 133.798 207.06 134.345 207.06ZM156.368 198.08C157.715 198.08 158.782 198.48 159.568 199.28C160.368 200.067 160.768 201.253 160.768 202.84V209H157.648V203.32C157.648 202.467 157.468 201.833 157.108 201.42C156.762 200.993 156.262 200.78 155.608 200.78C154.875 200.78 154.295 201.02 153.868 201.5C153.442 201.967 153.228 202.667 153.228 203.6V209H150.108V203.32C150.108 201.627 149.428 200.78 148.068 200.78C147.348 200.78 146.775 201.02 146.348 201.5C145.922 201.967 145.708 202.667 145.708 203.6V209H142.588V198.24H145.568V199.48C145.968 199.027 146.455 198.68 147.028 198.44C147.615 198.2 148.255 198.08 148.948 198.08C149.708 198.08 150.395 198.233 151.008 198.54C151.622 198.833 152.115 199.267 152.488 199.84C152.928 199.28 153.482 198.847 154.148 198.54C154.828 198.233 155.568 198.08 156.368 198.08ZM174.222 203.66C174.222 203.7 174.202 203.98 174.162 204.5H166.022C166.169 205.167 166.516 205.693 167.062 206.08C167.609 206.467 168.289 206.66 169.102 206.66C169.662 206.66 170.156 206.58 170.582 206.42C171.022 206.247 171.429 205.98 171.802 205.62L173.462 207.42C172.449 208.58 170.969 209.16 169.022 209.16C167.809 209.16 166.736 208.927 165.802 208.46C164.869 207.98 164.149 207.32 163.642 206.48C163.136 205.64 162.882 204.687 162.882 203.62C162.882 202.567 163.129 201.62 163.622 200.78C164.129 199.927 164.816 199.267 165.682 198.8C166.562 198.32 167.542 198.08 168.622 198.08C169.676 198.08 170.629 198.307 171.482 198.76C172.336 199.213 173.002 199.867 173.482 200.72C173.976 201.56 174.222 202.54 174.222 203.66ZM168.642 200.44C167.936 200.44 167.342 200.64 166.862 201.04C166.382 201.44 166.089 201.987 165.982 202.68H171.282C171.176 202 170.882 201.46 170.402 201.06C169.922 200.647 169.336 200.44 168.642 200.44Z" fill="#C4C4C4"/>
<rect x="47" y="257" width="338" height="50" rx="5" fill="white"/>
<path d="M71.1691 289.24C69.1691 289.24 67.6091 288.687 66.4891 287.58C65.3824 286.473 64.8291 284.893 64.8291 282.84V275H68.0691V282.72C68.0691 285.227 69.1091 286.48 71.1891 286.48C72.2024 286.48 72.9757 286.18 73.5091 285.58C74.0424 284.967 74.3091 284.013 74.3091 282.72V275H77.5091V282.84C77.5091 284.893 76.9491 286.473 75.8291 287.58C74.7224 288.687 73.1691 289.24 71.1691 289.24ZM84.1108 289.16C83.2174 289.16 82.3441 289.053 81.4908 288.84C80.6374 288.613 79.9574 288.333 79.4508 288L80.4908 285.76C80.9708 286.067 81.5508 286.32 82.2308 286.52C82.9108 286.707 83.5774 286.8 84.2308 286.8C85.5508 286.8 86.2108 286.473 86.2108 285.82C86.2108 285.513 86.0308 285.293 85.6708 285.16C85.3108 285.027 84.7574 284.913 84.0108 284.82C83.1308 284.687 82.4041 284.533 81.8308 284.36C81.2574 284.187 80.7574 283.88 80.3308 283.44C79.9174 283 79.7108 282.373 79.7108 281.56C79.7108 280.88 79.9041 280.28 80.2908 279.76C80.6908 279.227 81.2641 278.813 82.0108 278.52C82.7708 278.227 83.6641 278.08 84.6908 278.08C85.4508 278.08 86.2041 278.167 86.9508 278.34C87.7108 278.5 88.3374 278.727 88.8308 279.02L87.7908 281.24C86.8441 280.707 85.8108 280.44 84.6908 280.44C84.0241 280.44 83.5241 280.533 83.1908 280.72C82.8574 280.907 82.6908 281.147 82.6908 281.44C82.6908 281.773 82.8708 282.007 83.2308 282.14C83.5908 282.273 84.1641 282.4 84.9508 282.52C85.8308 282.667 86.5508 282.827 87.1108 283C87.6708 283.16 88.1574 283.46 88.5708 283.9C88.9841 284.34 89.1908 284.953 89.1908 285.74C89.1908 286.407 88.9908 287 88.5908 287.52C88.1908 288.04 87.6041 288.447 86.8308 288.74C86.0708 289.02 85.1641 289.16 84.1108 289.16ZM101.656 283.66C101.656 283.7 101.636 283.98 101.596 284.5H93.4558C93.6024 285.167 93.9491 285.693 94.4958 286.08C95.0424 286.467 95.7224 286.66 96.5358 286.66C97.0958 286.66 97.5891 286.58 98.0158 286.42C98.4558 286.247 98.8624 285.98 99.2358 285.62L100.896 287.42C99.8824 288.58 98.4024 289.16 96.4558 289.16C95.2424 289.16 94.1691 288.927 93.2358 288.46C92.3024 287.98 91.5824 287.32 91.0758 286.48C90.5691 285.64 90.3158 284.687 90.3158 283.62C90.3158 282.567 90.5624 281.62 91.0558 280.78C91.5624 279.927 92.2491 279.267 93.1158 278.8C93.9958 278.32 94.9758 278.08 96.0558 278.08C97.1091 278.08 98.0624 278.307 98.9158 278.76C99.7691 279.213 100.436 279.867 100.916 280.72C101.409 281.56 101.656 282.54 101.656 283.66ZM96.0758 280.44C95.3691 280.44 94.7758 280.64 94.2958 281.04C93.8158 281.44 93.5224 281.987 93.4158 282.68H98.7158C98.6091 282 98.3158 281.46 97.8358 281.06C97.3558 280.647 96.7691 280.44 96.0758 280.44ZM106.713 279.66C107.086 279.14 107.586 278.747 108.213 278.48C108.853 278.213 109.586 278.08 110.413 278.08V280.96C110.066 280.933 109.833 280.92 109.713 280.92C108.82 280.92 108.12 281.173 107.613 281.68C107.106 282.173 106.853 282.92 106.853 283.92V289H103.733V278.24H106.713V279.66ZM118.808 278.08C120.141 278.08 121.215 278.48 122.028 279.28C122.855 280.08 123.268 281.267 123.268 282.84V289H120.148V283.32C120.148 282.467 119.961 281.833 119.588 281.42C119.215 280.993 118.675 280.78 117.968 280.78C117.181 280.78 116.555 281.027 116.088 281.52C115.621 282 115.388 282.72 115.388 283.68V289H112.268V278.24H115.248V279.5C115.661 279.047 116.175 278.7 116.788 278.46C117.401 278.207 118.075 278.08 118.808 278.08ZM130.436 278.08C132.103 278.08 133.383 278.48 134.276 279.28C135.17 280.067 135.616 281.26 135.616 282.86V289H132.696V287.66C132.11 288.66 131.016 289.16 129.416 289.16C128.59 289.16 127.87 289.02 127.256 288.74C126.656 288.46 126.196 288.073 125.876 287.58C125.556 287.087 125.396 286.527 125.396 285.9C125.396 284.9 125.77 284.113 126.516 283.54C127.276 282.967 128.443 282.68 130.016 282.68H132.496C132.496 282 132.29 281.48 131.876 281.12C131.463 280.747 130.843 280.56 130.016 280.56C129.443 280.56 128.876 280.653 128.316 280.84C127.77 281.013 127.303 281.253 126.916 281.56L125.796 279.38C126.383 278.967 127.083 278.647 127.896 278.42C128.723 278.193 129.57 278.08 130.436 278.08ZM130.196 287.06C130.73 287.06 131.203 286.94 131.616 286.7C132.03 286.447 132.323 286.08 132.496 285.6V284.5H130.356C129.076 284.5 128.436 284.92 128.436 285.76C128.436 286.16 128.59 286.48 128.896 286.72C129.216 286.947 129.65 287.06 130.196 287.06ZM152.22 278.08C153.567 278.08 154.633 278.48 155.42 279.28C156.22 280.067 156.62 281.253 156.62 282.84V289H153.5V283.32C153.5 282.467 153.32 281.833 152.96 281.42C152.613 280.993 152.113 280.78 151.46 280.78C150.727 280.78 150.147 281.02 149.72 281.5C149.293 281.967 149.08 282.667 149.08 283.6V289H145.96V283.32C145.96 281.627 145.28 280.78 143.92 280.78C143.2 280.78 142.627 281.02 142.2 281.5C141.773 281.967 141.56 282.667 141.56 283.6V289H138.44V278.24H141.42V279.48C141.82 279.027 142.307 278.68 142.88 278.44C143.467 278.2 144.107 278.08 144.8 278.08C145.56 278.08 146.247 278.233 146.86 278.54C147.473 278.833 147.967 279.267 148.34 279.84C148.78 279.28 149.333 278.847 150 278.54C150.68 278.233 151.42 278.08 152.22 278.08ZM170.074 283.66C170.074 283.7 170.054 283.98 170.014 284.5H161.874C162.02 285.167 162.367 285.693 162.914 286.08C163.46 286.467 164.14 286.66 164.954 286.66C165.514 286.66 166.007 286.58 166.434 286.42C166.874 286.247 167.28 285.98 167.654 285.62L169.314 287.42C168.3 288.58 166.82 289.16 164.874 289.16C163.66 289.16 162.587 288.927 161.654 288.46C160.72 287.98 160 287.32 159.494 286.48C158.987 285.64 158.734 284.687 158.734 283.62C158.734 282.567 158.98 281.62 159.474 280.78C159.98 279.927 160.667 279.267 161.534 278.8C162.414 278.32 163.394 278.08 164.474 278.08C165.527 278.08 166.48 278.307 167.334 278.76C168.187 279.213 168.854 279.867 169.334 280.72C169.827 281.56 170.074 282.54 170.074 283.66ZM164.494 280.44C163.787 280.44 163.194 280.64 162.714 281.04C162.234 281.44 161.94 281.987 161.834 282.68H167.134C167.027 282 166.734 281.46 166.254 281.06C165.774 280.647 165.187 280.44 164.494 280.44Z" fill="#C4C4C4"/>
<rect x="47" y="337.259" width="338" height="50" rx="5" fill="white"/>
<path d="M75.6152 366.659V369.259H64.7752V355.259H75.3552V357.859H67.9952V360.899H74.4952V363.419H67.9952V366.659H75.6152ZM91.7532 358.339C93.0999 358.339 94.1665 358.739 94.9532 359.539C95.7532 360.326 96.1532 361.512 96.1532 363.099V369.259H93.0332V363.579C93.0332 362.726 92.8532 362.092 92.4932 361.679C92.1465 361.252 91.6465 361.039 90.9932 361.039C90.2599 361.039 89.6799 361.279 89.2532 361.759C88.8265 362.226 88.6132 362.926 88.6132 363.859V369.259H85.4932V363.579C85.4932 361.886 84.8132 361.039 83.4532 361.039C82.7332 361.039 82.1599 361.279 81.7332 361.759C81.3065 362.226 81.0932 362.926 81.0932 363.859V369.259H77.9732V358.499H80.9532V359.739C81.3532 359.286 81.8399 358.939 82.4132 358.699C82.9999 358.459 83.6399 358.339 84.3332 358.339C85.0932 358.339 85.7799 358.492 86.3932 358.799C87.0065 359.092 87.4999 359.526 87.8732 360.099C88.3132 359.539 88.8665 359.106 89.5332 358.799C90.2132 358.492 90.9532 358.339 91.7532 358.339ZM103.29 358.339C104.956 358.339 106.236 358.739 107.13 359.539C108.023 360.326 108.47 361.519 108.47 363.119V369.259H105.55V367.919C104.963 368.919 103.87 369.419 102.27 369.419C101.443 369.419 100.723 369.279 100.11 368.999C99.5098 368.719 99.0498 368.332 98.7298 367.839C98.4098 367.346 98.2498 366.786 98.2498 366.159C98.2498 365.159 98.6231 364.372 99.3698 363.799C100.13 363.226 101.296 362.939 102.87 362.939H105.35C105.35 362.259 105.143 361.739 104.73 361.379C104.316 361.006 103.696 360.819 102.87 360.819C102.296 360.819 101.73 360.912 101.17 361.099C100.623 361.272 100.156 361.512 99.7698 361.819L98.6498 359.639C99.2364 359.226 99.9364 358.906 100.75 358.679C101.576 358.452 102.423 358.339 103.29 358.339ZM103.05 367.319C103.583 367.319 104.056 367.199 104.47 366.959C104.883 366.706 105.176 366.339 105.35 365.859V364.759H103.21C101.93 364.759 101.29 365.179 101.29 366.019C101.29 366.419 101.443 366.739 101.75 366.979C102.07 367.206 102.503 367.319 103.05 367.319ZM111.294 358.499H114.414V369.259H111.294V358.499ZM112.854 356.999C112.28 356.999 111.814 356.832 111.454 356.499C111.094 356.166 110.914 355.752 110.914 355.259C110.914 354.766 111.094 354.352 111.454 354.019C111.814 353.686 112.28 353.519 112.854 353.519C113.427 353.519 113.894 353.679 114.254 353.999C114.614 354.319 114.794 354.719 114.794 355.199C114.794 355.719 114.614 356.152 114.254 356.499C113.894 356.832 113.427 356.999 112.854 356.999ZM117.309 354.419H120.429V369.259H117.309V354.419Z" fill="#C4C4C4"/>
<path d="M5.44687 765.93C8.43708 772.637 10.6257 787.038 12.5599 791.453M12.5599 791.453C33.337 781.833 60.262 769.948 91.904 759.58C123.546 749.212 130.209 746.633 141.481 745.267C168.511 740.504 170.516 740.551 176.299 740.18M12.5599 791.453L35.7822 832.382M176.299 740.18C179.289 739.602 331.152 665.497 331.152 665.497L450.225 606.586L479.59 596.066M176.299 740.18C169.322 759.008 154.264 774.176 134.068 794.998M577.393 607.814L553.871 594.079L531.414 589.812M356.588 711.543L376.604 690.089L425.465 676.032L482.66 700.358L416.682 773.244L359.282 836.654M356.588 711.543L333.668 719.754L243.424 752.084C236.27 754.925 200.157 773.359 186.906 778.241C173.656 783.123 167.091 786.573 131.757 797.999M356.588 711.543L268.941 809.73M131.757 797.999L35.7822 832.382M131.757 797.999L134.068 794.998M35.7822 832.382C45.6249 833.781 86.9921 846.54 86.9921 846.54M35.7822 832.382L-94.8661 982.61M86.9921 846.54L134.068 794.998M86.9921 846.54L122.981 857.286M204.707 881.689L295.944 906.623M204.707 881.689L268.941 809.73M204.707 881.689L142.075 950.913M204.707 881.689L145.85 864.114M295.944 906.623L359.282 836.654M295.944 906.623L426.117 941.249M295.944 906.623L231.412 977.513M268.941 809.73L359.282 836.654M359.282 836.654L449.758 858.49L426.117 941.249M426.117 941.249L343.365 1011.77L231.412 977.513M231.412 977.513L142.075 950.913M231.412 977.513L170.277 1052.11M142.075 950.913L81.2716 936.252M142.075 950.913L89.3169 1024.48M81.2716 936.252L145.85 864.114M81.2716 936.252L65.0427 931.724M145.85 864.114L122.981 857.286M122.981 857.286L65.0427 931.724M65.0427 931.724L7.58082 1002.54M7.58082 1002.54L89.3169 1024.48M7.58082 1002.54L-94.8661 982.61M89.3169 1024.48L170.277 1052.11M170.277 1052.11L193.701 1057.02M-94.8661 982.61L-149.232 1039.02L-231.546 1020.74L-172.817 954.392M1.24177 764.974C55.0482 745.144 81.5044 735.716 124.433 720.84L323.437 618.027L441.354 552.143L493.313 568.988M493.313 568.988L479.59 596.066M493.313 568.988L508.956 585.546L479.59 596.066M-17.7692 849.395L-219.428 891.801L-250.058 928.876L-172.817 954.392M-144.209 963.843L-172.817 954.392" stroke="url(#paint1_linear_14_3)" stroke-opacity="0.3" stroke-width="5"/>
<path d="M-172.484 559.826L-104.437 536.496L-85.6699 596.868L-139.307 620.215L-148.532 598.912L-49.5401 506.806L41.1059 480.963L49.4723 496.906L128.684 475.422L142.432 498.14L164.172 490.268L158.728 481.447M158.728 481.447L147.449 463.176L198.139 449.838L208.493 470.295L158.728 481.447ZM180.792 464.624L335.308 446.186" stroke="#05CAAD" stroke-opacity="0.1" stroke-width="2"/>
<path d="M10.39 999.315L122.989 858.012L36.7624 832.533L14.2188 791.192L48.0932 775.438" stroke="#05CAAD" stroke-opacity="0.2" stroke-width="2"/>
<rect x="32" y="758" width="364" height="62" rx="31" fill="#01A78F"/>
<path d="M129.672 801.36C128.012 801.36 126.402 801.14 124.842 800.7C123.302 800.24 122.062 799.65 121.122 798.93L122.772 795.27C123.672 795.93 124.742 796.46 125.982 796.86C127.222 797.26 128.462 797.46 129.702 797.46C131.082 797.46 132.102 797.26 132.762 796.86C133.422 796.44 133.752 795.89 133.752 795.21C133.752 794.71 133.552 794.3 133.152 793.98C132.772 793.64 132.272 793.37 131.652 793.17C131.052 792.97 130.232 792.75 129.192 792.51C127.592 792.13 126.282 791.75 125.262 791.37C124.242 790.99 123.362 790.38 122.622 789.54C121.902 788.7 121.542 787.58 121.542 786.18C121.542 784.96 121.872 783.86 122.532 782.88C123.192 781.88 124.182 781.09 125.502 780.51C126.842 779.93 128.472 779.64 130.392 779.64C131.732 779.64 133.042 779.8 134.322 780.12C135.602 780.44 136.722 780.9 137.682 781.5L136.182 785.19C134.242 784.09 132.302 783.54 130.362 783.54C129.002 783.54 127.992 783.76 127.332 784.2C126.692 784.64 126.372 785.22 126.372 785.94C126.372 786.66 126.742 787.2 127.482 787.56C128.242 787.9 129.392 788.24 130.932 788.58C132.532 788.96 133.842 789.34 134.862 789.72C135.882 790.1 136.752 790.7 137.472 791.52C138.212 792.34 138.582 793.45 138.582 794.85C138.582 796.05 138.242 797.15 137.562 798.15C136.902 799.13 135.902 799.91 134.562 800.49C133.222 801.07 131.592 801.36 129.672 801.36ZM141.573 784.86H146.253V801H141.573V784.86ZM143.913 782.61C143.053 782.61 142.353 782.36 141.813 781.86C141.273 781.36 141.003 780.74 141.003 780C141.003 779.26 141.273 778.64 141.813 778.14C142.353 777.64 143.053 777.39 143.913 777.39C144.773 777.39 145.473 777.63 146.013 778.11C146.553 778.59 146.823 779.19 146.823 779.91C146.823 780.69 146.553 781.34 146.013 781.86C145.473 782.36 144.773 782.61 143.913 782.61ZM167.247 784.86V798.3C167.247 801.26 166.477 803.46 164.937 804.9C163.397 806.34 161.147 807.06 158.187 807.06C156.627 807.06 155.147 806.87 153.747 806.49C152.347 806.11 151.187 805.56 150.267 804.84L152.127 801.48C152.807 802.04 153.667 802.48 154.707 802.8C155.747 803.14 156.787 803.31 157.827 803.31C159.447 803.31 160.637 802.94 161.397 802.2C162.177 801.48 162.567 800.38 162.567 798.9V798.21C161.347 799.55 159.647 800.22 157.467 800.22C155.987 800.22 154.627 799.9 153.387 799.26C152.167 798.6 151.197 797.68 150.477 796.5C149.757 795.32 149.397 793.96 149.397 792.42C149.397 790.88 149.757 789.52 150.477 788.34C151.197 787.16 152.167 786.25 153.387 785.61C154.627 784.95 155.987 784.62 157.467 784.62C159.807 784.62 161.587 785.39 162.807 786.93V784.86H167.247ZM158.397 796.38C159.637 796.38 160.647 796.02 161.427 795.3C162.227 794.56 162.627 793.6 162.627 792.42C162.627 791.24 162.227 790.29 161.427 789.57C160.647 788.83 159.637 788.46 158.397 788.46C157.157 788.46 156.137 788.83 155.337 789.57C154.537 790.29 154.137 791.24 154.137 792.42C154.137 793.6 154.537 794.56 155.337 795.3C156.137 796.02 157.157 796.38 158.397 796.38ZM181.412 784.62C183.412 784.62 185.022 785.22 186.242 786.42C187.482 787.62 188.102 789.4 188.102 791.76V801H183.422V792.48C183.422 791.2 183.142 790.25 182.582 789.63C182.022 788.99 181.212 788.67 180.152 788.67C178.972 788.67 178.032 789.04 177.332 789.78C176.632 790.5 176.282 791.58 176.282 793.02V801H171.602V784.86H176.072V786.75C176.692 786.07 177.462 785.55 178.382 785.19C179.302 784.81 180.312 784.62 181.412 784.62ZM217.101 784.86V801H212.661V799.08C212.041 799.78 211.301 800.32 210.441 800.7C209.581 801.06 208.651 801.24 207.651 801.24C205.531 801.24 203.851 800.63 202.611 799.41C201.371 798.19 200.751 796.38 200.751 793.98V784.86H205.431V793.29C205.431 795.89 206.521 797.19 208.701 797.19C209.821 797.19 210.721 796.83 211.401 796.11C212.081 795.37 212.421 794.28 212.421 792.84V784.86H217.101ZM230.976 784.62C232.476 784.62 233.836 784.97 235.056 785.67C236.296 786.35 237.266 787.32 237.966 788.58C238.666 789.82 239.016 791.27 239.016 792.93C239.016 794.59 238.666 796.05 237.966 797.31C237.266 798.55 236.296 799.52 235.056 800.22C233.836 800.9 232.476 801.24 230.976 801.24C228.916 801.24 227.296 800.59 226.116 799.29V806.82H221.436V784.86H225.906V786.72C227.066 785.32 228.756 784.62 230.976 784.62ZM230.166 797.4C231.366 797.4 232.346 797 233.106 796.2C233.886 795.38 234.276 794.29 234.276 792.93C234.276 791.57 233.886 790.49 233.106 789.69C232.346 788.87 231.366 788.46 230.166 788.46C228.966 788.46 227.976 788.87 227.196 789.69C226.436 790.49 226.056 791.57 226.056 792.93C226.056 794.29 226.436 795.38 227.196 796.2C227.976 797 228.966 797.4 230.166 797.4ZM260.455 784.62C262.455 784.62 264.065 785.22 265.285 786.42C266.525 787.62 267.145 789.4 267.145 791.76V801H262.465V792.48C262.465 791.2 262.185 790.25 261.625 789.63C261.065 788.99 260.255 788.67 259.195 788.67C258.015 788.67 257.075 789.04 256.375 789.78C255.675 790.5 255.325 791.58 255.325 793.02V801H250.645V784.86H255.115V786.75C255.735 786.07 256.505 785.55 257.425 785.19C258.345 784.81 259.355 784.62 260.455 784.62ZM279.243 801.24C277.543 801.24 276.013 800.89 274.653 800.19C273.313 799.47 272.263 798.48 271.503 797.22C270.743 795.96 270.363 794.53 270.363 792.93C270.363 791.33 270.743 789.9 271.503 788.64C272.263 787.38 273.313 786.4 274.653 785.7C276.013 784.98 277.543 784.62 279.243 784.62C280.943 784.62 282.463 784.98 283.803 785.7C285.143 786.4 286.193 787.38 286.953 788.64C287.713 789.9 288.093 791.33 288.093 792.93C288.093 794.53 287.713 795.96 286.953 797.22C286.193 798.48 285.143 799.47 283.803 800.19C282.463 800.89 280.943 801.24 279.243 801.24ZM279.243 797.4C280.443 797.4 281.423 797 282.183 796.2C282.963 795.38 283.353 794.29 283.353 792.93C283.353 791.57 282.963 790.49 282.183 789.69C281.423 788.87 280.443 788.46 279.243 788.46C278.043 788.46 277.053 788.87 276.273 789.69C275.493 790.49 275.103 791.57 275.103 792.93C275.103 794.29 275.493 795.38 276.273 796.2C277.053 797 278.043 797.4 279.243 797.4ZM316.702 784.86L310.852 801H306.352L302.722 790.98L298.972 801H294.472L288.652 784.86H293.062L296.872 795.78L300.832 784.86H304.792L308.632 795.78L312.562 784.86H316.702Z" fill="white"/>
<rect x="47" y="657.259" width="338" height="50" rx="5" fill="white"/>
<path d="M71.5514 689.499C70.1247 689.499 68.8314 689.192 67.6714 688.579C66.5247 687.952 65.6181 687.092 64.9514 685.999C64.2981 684.892 63.9714 683.646 63.9714 682.259C63.9714 680.872 64.2981 679.632 64.9514 678.539C65.6181 677.432 66.5247 676.572 67.6714 675.959C68.8314 675.332 70.1314 675.019 71.5714 675.019C72.7847 675.019 73.8781 675.232 74.8514 675.659C75.8381 676.086 76.6647 676.699 77.3314 677.499L75.2514 679.419C74.3047 678.326 73.1314 677.779 71.7314 677.779C70.8647 677.779 70.0914 677.972 69.4114 678.359C68.7314 678.732 68.1981 679.259 67.8114 679.939C67.4381 680.619 67.2514 681.392 67.2514 682.259C67.2514 683.126 67.4381 683.899 67.8114 684.579C68.1981 685.259 68.7314 685.792 69.4114 686.179C70.0914 686.552 70.8647 686.739 71.7314 686.739C73.1314 686.739 74.3047 686.186 75.2514 685.079L77.3314 686.999C76.6647 687.812 75.8381 688.432 74.8514 688.859C73.8647 689.286 72.7647 689.499 71.5514 689.499ZM84.0483 689.419C82.9149 689.419 81.8949 689.186 80.9883 688.719C80.0949 688.239 79.3949 687.579 78.8883 686.739C78.3816 685.899 78.1283 684.946 78.1283 683.879C78.1283 682.812 78.3816 681.859 78.8883 681.019C79.3949 680.179 80.0949 679.526 80.9883 679.059C81.8949 678.579 82.9149 678.339 84.0483 678.339C85.1816 678.339 86.1949 678.579 87.0883 679.059C87.9816 679.526 88.6816 680.179 89.1883 681.019C89.6949 681.859 89.9483 682.812 89.9483 683.879C89.9483 684.946 89.6949 685.899 89.1883 686.739C88.6816 687.579 87.9816 688.239 87.0883 688.719C86.1949 689.186 85.1816 689.419 84.0483 689.419ZM84.0483 686.859C84.8483 686.859 85.5016 686.592 86.0083 686.059C86.5283 685.512 86.7883 684.786 86.7883 683.879C86.7883 682.972 86.5283 682.252 86.0083 681.719C85.5016 681.172 84.8483 680.899 84.0483 680.899C83.2483 680.899 82.5883 681.172 82.0683 681.719C81.5483 682.252 81.2883 682.972 81.2883 683.879C81.2883 684.786 81.5483 685.512 82.0683 686.059C82.5883 686.592 83.2483 686.859 84.0483 686.859ZM98.5738 678.339C99.9071 678.339 100.98 678.739 101.794 679.539C102.62 680.339 103.034 681.526 103.034 683.099V689.259H99.9138V683.579C99.9138 682.726 99.7271 682.092 99.3538 681.679C98.9804 681.252 98.4404 681.039 97.7338 681.039C96.9471 681.039 96.3204 681.286 95.8538 681.779C95.3871 682.259 95.1538 682.979 95.1538 683.939V689.259H92.0338V678.499H95.0138V679.759C95.4271 679.306 95.9404 678.959 96.5538 678.719C97.1671 678.466 97.8404 678.339 98.5738 678.339ZM109.282 678.739H112.042V681.139H109.362V689.259H106.242V681.139H104.582V678.739H106.242V678.259C106.242 677.032 106.602 676.059 107.322 675.339C108.055 674.619 109.082 674.259 110.402 674.259C110.869 674.259 111.309 674.312 111.722 674.419C112.149 674.512 112.502 674.652 112.782 674.839L111.962 677.099C111.602 676.846 111.182 676.719 110.702 676.719C109.755 676.719 109.282 677.239 109.282 678.279V678.739ZM115.202 678.499H118.322V689.259H115.202V678.499ZM116.762 676.999C116.189 676.999 115.722 676.832 115.362 676.499C115.002 676.166 114.822 675.752 114.822 675.259C114.822 674.766 115.002 674.352 115.362 674.019C115.722 673.686 116.189 673.519 116.762 673.519C117.335 673.519 117.802 673.679 118.162 673.999C118.522 674.319 118.702 674.719 118.702 675.199C118.702 675.719 118.522 676.152 118.162 676.499C117.802 676.832 117.335 676.999 116.762 676.999ZM124.193 679.919C124.567 679.399 125.067 679.006 125.693 678.739C126.333 678.472 127.067 678.339 127.893 678.339V681.219C127.547 681.192 127.313 681.179 127.193 681.179C126.3 681.179 125.6 681.432 125.093 681.939C124.587 682.432 124.333 683.179 124.333 684.179V689.259H121.213V678.499H124.193V679.919ZM143.529 678.339C144.875 678.339 145.942 678.739 146.729 679.539C147.529 680.326 147.929 681.512 147.929 683.099V689.259H144.809V683.579C144.809 682.726 144.629 682.092 144.269 681.679C143.922 681.252 143.422 681.039 142.769 681.039C142.035 681.039 141.455 681.279 141.029 681.759C140.602 682.226 140.389 682.926 140.389 683.859V689.259H137.269V683.579C137.269 681.886 136.589 681.039 135.229 681.039C134.509 681.039 133.935 681.279 133.509 681.759C133.082 682.226 132.869 682.926 132.869 683.859V689.259H129.749V678.499H132.729V679.739C133.129 679.286 133.615 678.939 134.189 678.699C134.775 678.459 135.415 678.339 136.109 678.339C136.869 678.339 137.555 678.492 138.169 678.799C138.782 679.092 139.275 679.526 139.649 680.099C140.089 679.539 140.642 679.106 141.309 678.799C141.989 678.492 142.729 678.339 143.529 678.339ZM162.749 678.339C163.749 678.339 164.656 678.572 165.469 679.039C166.296 679.492 166.943 680.139 167.409 680.979C167.876 681.806 168.109 682.772 168.109 683.879C168.109 684.986 167.876 685.959 167.409 686.799C166.943 687.626 166.296 688.272 165.469 688.739C164.656 689.192 163.749 689.419 162.749 689.419C161.376 689.419 160.296 688.986 159.509 688.119V693.139H156.389V678.499H159.369V679.739C160.143 678.806 161.269 678.339 162.749 678.339ZM162.209 686.859C163.009 686.859 163.663 686.592 164.169 686.059C164.689 685.512 164.949 684.786 164.949 683.879C164.949 682.972 164.689 682.252 164.169 681.719C163.663 681.172 163.009 680.899 162.209 680.899C161.409 680.899 160.749 681.172 160.229 681.719C159.723 682.252 159.469 682.972 159.469 683.879C159.469 684.786 159.723 685.512 160.229 686.059C160.749 686.592 161.409 686.859 162.209 686.859ZM174.362 678.339C176.029 678.339 177.309 678.739 178.202 679.539C179.095 680.326 179.542 681.519 179.542 683.119V689.259H176.622V687.919C176.035 688.919 174.942 689.419 173.342 689.419C172.515 689.419 171.795 689.279 171.182 688.999C170.582 688.719 170.122 688.332 169.802 687.839C169.482 687.346 169.322 686.786 169.322 686.159C169.322 685.159 169.695 684.372 170.442 683.799C171.202 683.226 172.369 682.939 173.942 682.939H176.422C176.422 682.259 176.215 681.739 175.802 681.379C175.389 681.006 174.769 680.819 173.942 680.819C173.369 680.819 172.802 680.912 172.242 681.099C171.695 681.272 171.229 681.512 170.842 681.819L169.722 679.639C170.309 679.226 171.009 678.906 171.822 678.679C172.649 678.452 173.495 678.339 174.362 678.339ZM174.122 687.319C174.655 687.319 175.129 687.199 175.542 686.959C175.955 686.706 176.249 686.339 176.422 685.859V684.759H174.282C173.002 684.759 172.362 685.179 172.362 686.019C172.362 686.419 172.515 686.739 172.822 686.979C173.142 687.206 173.575 687.319 174.122 687.319ZM185.986 689.419C185.092 689.419 184.219 689.312 183.366 689.099C182.512 688.872 181.832 688.592 181.326 688.259L182.366 686.019C182.846 686.326 183.426 686.579 184.106 686.779C184.786 686.966 185.452 687.059 186.106 687.059C187.426 687.059 188.086 686.732 188.086 686.079C188.086 685.772 187.906 685.552 187.546 685.419C187.186 685.286 186.632 685.172 185.886 685.079C185.006 684.946 184.279 684.792 183.706 684.619C183.132 684.446 182.632 684.139 182.206 683.699C181.792 683.259 181.586 682.632 181.586 681.819C181.586 681.139 181.779 680.539 182.166 680.019C182.566 679.486 183.139 679.072 183.886 678.779C184.646 678.486 185.539 678.339 186.566 678.339C187.326 678.339 188.079 678.426 188.826 678.599C189.586 678.759 190.212 678.986 190.706 679.279L189.666 681.499C188.719 680.966 187.686 680.699 186.566 680.699C185.899 680.699 185.399 680.792 185.066 680.979C184.732 681.166 184.566 681.406 184.566 681.699C184.566 682.032 184.746 682.266 185.106 682.399C185.466 682.532 186.039 682.659 186.826 682.779C187.706 682.926 188.426 683.086 188.986 683.259C189.546 683.419 190.032 683.719 190.446 684.159C190.859 684.599 191.066 685.212 191.066 685.999C191.066 686.666 190.866 687.259 190.466 687.779C190.066 688.299 189.479 688.706 188.706 688.999C187.946 689.279 187.039 689.419 185.986 689.419ZM196.611 689.419C195.717 689.419 194.844 689.312 193.991 689.099C193.137 688.872 192.457 688.592 191.951 688.259L192.991 686.019C193.471 686.326 194.051 686.579 194.731 686.779C195.411 686.966 196.077 687.059 196.731 687.059C198.051 687.059 198.711 686.732 198.711 686.079C198.711 685.772 198.531 685.552 198.171 685.419C197.811 685.286 197.257 685.172 196.511 685.079C195.631 684.946 194.904 684.792 194.331 684.619C193.757 684.446 193.257 684.139 192.831 683.699C192.417 683.259 192.211 682.632 192.211 681.819C192.211 681.139 192.404 680.539 192.791 680.019C193.191 679.486 193.764 679.072 194.511 678.779C195.271 678.486 196.164 678.339 197.191 678.339C197.951 678.339 198.704 678.426 199.451 678.599C200.211 678.759 200.837 678.986 201.331 679.279L200.291 681.499C199.344 680.966 198.311 680.699 197.191 680.699C196.524 680.699 196.024 680.792 195.691 680.979C195.357 681.166 195.191 681.406 195.191 681.699C195.191 682.032 195.371 682.266 195.731 682.399C196.091 682.532 196.664 682.659 197.451 682.779C198.331 682.926 199.051 683.086 199.611 683.259C200.171 683.419 200.657 683.719 201.071 684.159C201.484 684.599 201.691 685.212 201.691 685.999C201.691 686.666 201.491 687.259 201.091 687.779C200.691 688.299 200.104 688.706 199.331 688.999C198.571 689.279 197.664 689.419 196.611 689.419ZM220.7 678.499L216.8 689.259H213.8L211.38 682.579L208.88 689.259H205.88L202 678.499H204.94L207.48 685.779L210.12 678.499H212.76L215.32 685.779L217.94 678.499H220.7ZM226.978 689.419C225.845 689.419 224.825 689.186 223.918 688.719C223.025 688.239 222.325 687.579 221.818 686.739C221.311 685.899 221.058 684.946 221.058 683.879C221.058 682.812 221.311 681.859 221.818 681.019C222.325 680.179 223.025 679.526 223.918 679.059C224.825 678.579 225.845 678.339 226.978 678.339C228.111 678.339 229.125 678.579 230.018 679.059C230.911 679.526 231.611 680.179 232.118 681.019C232.625 681.859 232.878 682.812 232.878 683.879C232.878 684.946 232.625 685.899 232.118 686.739C231.611 687.579 230.911 688.239 230.018 688.719C229.125 689.186 228.111 689.419 226.978 689.419ZM226.978 686.859C227.778 686.859 228.431 686.592 228.938 686.059C229.458 685.512 229.718 684.786 229.718 683.879C229.718 682.972 229.458 682.252 228.938 681.719C228.431 681.172 227.778 680.899 226.978 680.899C226.178 680.899 225.518 681.172 224.998 681.719C224.478 682.252 224.218 682.972 224.218 683.879C224.218 684.786 224.478 685.512 224.998 686.059C225.518 686.592 226.178 686.859 226.978 686.859ZM237.943 679.919C238.317 679.399 238.817 679.006 239.443 678.739C240.083 678.472 240.817 678.339 241.643 678.339V681.219C241.297 681.192 241.063 681.179 240.943 681.179C240.05 681.179 239.35 681.432 238.843 681.939C238.337 682.432 238.083 683.179 238.083 684.179V689.259H234.963V678.499H237.943V679.919ZM254.361 674.419V689.259H251.381V688.019C250.608 688.952 249.488 689.419 248.021 689.419C247.008 689.419 246.088 689.192 245.261 688.739C244.448 688.286 243.808 687.639 243.341 686.799C242.874 685.959 242.641 684.986 242.641 683.879C242.641 682.772 242.874 681.799 243.341 680.959C243.808 680.119 244.448 679.472 245.261 679.019C246.088 678.566 247.008 678.339 248.021 678.339C249.394 678.339 250.468 678.772 251.241 679.639V674.419H254.361ZM248.561 686.859C249.348 686.859 250.001 686.592 250.521 686.059C251.041 685.512 251.301 684.786 251.301 683.879C251.301 682.972 251.041 682.252 250.521 681.719C250.001 681.172 249.348 680.899 248.561 680.899C247.761 680.899 247.101 681.172 246.581 681.719C246.061 682.252 245.801 682.972 245.801 683.879C245.801 684.786 246.061 685.512 246.581 686.059C247.101 686.592 247.761 686.859 248.561 686.859Z" fill="#C4C4C4"/>
<rect x="47" y="577.259" width="338" height="50" rx="5" fill="white"/>
<path d="M70.929 595.259C72.169 595.259 73.2423 595.466 74.149 595.879C75.069 596.292 75.7757 596.879 76.269 597.639C76.7623 598.399 77.009 599.299 77.009 600.339C77.009 601.366 76.7623 602.266 76.269 603.039C75.7757 603.799 75.069 604.386 74.149 604.799C73.2423 605.199 72.169 605.399 70.929 605.399H68.109V609.259H64.869V595.259H70.929ZM70.749 602.759C71.7223 602.759 72.4623 602.552 72.969 602.139C73.4757 601.712 73.729 601.112 73.729 600.339C73.729 599.552 73.4757 598.952 72.969 598.539C72.4623 598.112 71.7223 597.899 70.749 597.899H68.109V602.759H70.749ZM83.3445 598.339C85.0111 598.339 86.2911 598.739 87.1845 599.539C88.0778 600.326 88.5245 601.519 88.5245 603.119V609.259H85.6045V607.919C85.0178 608.919 83.9245 609.419 82.3245 609.419C81.4978 609.419 80.7778 609.279 80.1645 608.999C79.5645 608.719 79.1045 608.332 78.7845 607.839C78.4645 607.346 78.3045 606.786 78.3045 606.159C78.3045 605.159 78.6778 604.372 79.4245 603.799C80.1845 603.226 81.3511 602.939 82.9245 602.939H85.4045C85.4045 602.259 85.1978 601.739 84.7845 601.379C84.3711 601.006 83.7511 600.819 82.9245 600.819C82.3511 600.819 81.7845 600.912 81.2245 601.099C80.6778 601.272 80.2111 601.512 79.8245 601.819L78.7045 599.639C79.2911 599.226 79.9911 598.906 80.8045 598.679C81.6311 598.452 82.4778 598.339 83.3445 598.339ZM83.1045 607.319C83.6378 607.319 84.1111 607.199 84.5245 606.959C84.9378 606.706 85.2311 606.339 85.4045 605.859V604.759H83.2645C81.9845 604.759 81.3445 605.179 81.3445 606.019C81.3445 606.419 81.4978 606.739 81.8045 606.979C82.1245 607.206 82.5578 607.319 83.1045 607.319ZM94.9682 609.419C94.0749 609.419 93.2015 609.312 92.3482 609.099C91.4949 608.872 90.8149 608.592 90.3082 608.259L91.3482 606.019C91.8282 606.326 92.4082 606.579 93.0882 606.779C93.7682 606.966 94.4349 607.059 95.0882 607.059C96.4082 607.059 97.0682 606.732 97.0682 606.079C97.0682 605.772 96.8882 605.552 96.5282 605.419C96.1682 605.286 95.6149 605.172 94.8682 605.079C93.9882 604.946 93.2615 604.792 92.6882 604.619C92.1149 604.446 91.6149 604.139 91.1882 603.699C90.7749 603.259 90.5682 602.632 90.5682 601.819C90.5682 601.139 90.7615 600.539 91.1482 600.019C91.5482 599.486 92.1215 599.072 92.8682 598.779C93.6282 598.486 94.5215 598.339 95.5482 598.339C96.3082 598.339 97.0615 598.426 97.8082 598.599C98.5682 598.759 99.1949 598.986 99.6882 599.279L98.6482 601.499C97.7015 600.966 96.6682 600.699 95.5482 600.699C94.8815 600.699 94.3815 600.792 94.0482 600.979C93.7149 601.166 93.5482 601.406 93.5482 601.699C93.5482 602.032 93.7282 602.266 94.0882 602.399C94.4482 602.532 95.0215 602.659 95.8082 602.779C96.6882 602.926 97.4082 603.086 97.9682 603.259C98.5282 603.419 99.0149 603.719 99.4282 604.159C99.8415 604.599 100.048 605.212 100.048 605.999C100.048 606.666 99.8482 607.259 99.4482 607.779C99.0482 608.299 98.4615 608.706 97.6882 608.999C96.9282 609.279 96.0215 609.419 94.9682 609.419ZM105.593 609.419C104.7 609.419 103.827 609.312 102.973 609.099C102.12 608.872 101.44 608.592 100.933 608.259L101.973 606.019C102.453 606.326 103.033 606.579 103.713 606.779C104.393 606.966 105.06 607.059 105.713 607.059C107.033 607.059 107.693 606.732 107.693 606.079C107.693 605.772 107.513 605.552 107.153 605.419C106.793 605.286 106.24 605.172 105.493 605.079C104.613 604.946 103.887 604.792 103.313 604.619C102.74 604.446 102.24 604.139 101.813 603.699C101.4 603.259 101.193 602.632 101.193 601.819C101.193 601.139 101.387 600.539 101.773 600.019C102.173 599.486 102.747 599.072 103.493 598.779C104.253 598.486 105.147 598.339 106.173 598.339C106.933 598.339 107.687 598.426 108.433 598.599C109.193 598.759 109.82 598.986 110.313 599.279L109.273 601.499C108.327 600.966 107.293 600.699 106.173 600.699C105.507 600.699 105.007 600.792 104.673 600.979C104.34 601.166 104.173 601.406 104.173 601.699C104.173 602.032 104.353 602.266 104.713 602.399C105.073 602.532 105.647 602.659 106.433 602.779C107.313 602.926 108.033 603.086 108.593 603.259C109.153 603.419 109.64 603.719 110.053 604.159C110.467 604.599 110.673 605.212 110.673 605.999C110.673 606.666 110.473 607.259 110.073 607.779C109.673 608.299 109.087 608.706 108.313 608.999C107.553 609.279 106.647 609.419 105.593 609.419ZM129.683 598.499L125.783 609.259H122.783L120.363 602.579L117.863 609.259H114.863L110.983 598.499H113.923L116.463 605.779L119.103 598.499H121.743L124.303 605.779L126.923 598.499H129.683ZM135.96 609.419C134.827 609.419 133.807 609.186 132.9 608.719C132.007 608.239 131.307 607.579 130.8 606.739C130.294 605.899 130.04 604.946 130.04 603.879C130.04 602.812 130.294 601.859 130.8 601.019C131.307 600.179 132.007 599.526 132.9 599.059C133.807 598.579 134.827 598.339 135.96 598.339C137.094 598.339 138.107 598.579 139 599.059C139.894 599.526 140.594 600.179 141.1 601.019C141.607 601.859 141.86 602.812 141.86 603.879C141.86 604.946 141.607 605.899 141.1 606.739C140.594 607.579 139.894 608.239 139 608.719C138.107 609.186 137.094 609.419 135.96 609.419ZM135.96 606.859C136.76 606.859 137.414 606.592 137.92 606.059C138.44 605.512 138.7 604.786 138.7 603.879C138.7 602.972 138.44 602.252 137.92 601.719C137.414 601.172 136.76 600.899 135.96 600.899C135.16 600.899 134.5 601.172 133.98 601.719C133.46 602.252 133.2 602.972 133.2 603.879C133.2 604.786 133.46 605.512 133.98 606.059C134.5 606.592 135.16 606.859 135.96 606.859ZM146.926 599.919C147.299 599.399 147.799 599.006 148.426 598.739C149.066 598.472 149.799 598.339 150.626 598.339V601.219C150.279 601.192 150.046 601.179 149.926 601.179C149.033 601.179 148.333 601.432 147.826 601.939C147.319 602.432 147.066 603.179 147.066 604.179V609.259H143.946V598.499H146.926V599.919ZM163.343 594.419V609.259H160.363V608.019C159.59 608.952 158.47 609.419 157.003 609.419C155.99 609.419 155.07 609.192 154.243 608.739C153.43 608.286 152.79 607.639 152.323 606.799C151.857 605.959 151.623 604.986 151.623 603.879C151.623 602.772 151.857 601.799 152.323 600.959C152.79 600.119 153.43 599.472 154.243 599.019C155.07 598.566 155.99 598.339 157.003 598.339C158.377 598.339 159.45 598.772 160.223 599.639V594.419H163.343ZM157.543 606.859C158.33 606.859 158.983 606.592 159.503 606.059C160.023 605.512 160.283 604.786 160.283 603.879C160.283 602.972 160.023 602.252 159.503 601.719C158.983 601.172 158.33 600.899 157.543 600.899C156.743 600.899 156.083 601.172 155.563 601.719C155.043 602.252 154.783 602.972 154.783 603.879C154.783 604.786 155.043 605.512 155.563 606.059C156.083 606.592 156.743 606.859 157.543 606.859Z" fill="#C4C4C4"/>
</g>
<defs>
<linearGradient id="paint0_linear_14_3" x1="128.215" y1="-32.075" x2="258.788" y2="342.127" gradientUnits="userSpaceOnUse">
<stop stop-color="#05CAAD"/>
<stop offset="1" stop-color="#05CAAD" stop-opacity="0"/>
</linearGradient>
<linearGradient id="paint1_linear_14_3" x1="140.18" y1="660.04" x2="274.968" y2="1036.27" gradientUnits="userSpaceOnUse">
<stop stop-color="#05CAAD"/>
<stop offset="1" stop-color="#05CAAD" stop-opacity="0"/>
</linearGradient>
<clipPath id="clip0_14_3">
<rect width="428" height="926" rx="74" fill="white"/>
</clipPath>
</defs>
</svg>
